<?xml version="1.0" encoding="UTF-8" standalone="no"?>
<svg
   xmlns:dc="http://purl.org/dc/elements/1.1/"
   xmlns:cc="http://creativecommons.org/ns#"
   xmlns:rdf="http://www.w3.org/1999/02/22-rdf-syntax-ns#"
   xmlns:svg="http://www.w3.org/2000/svg"
   xmlns="http://www.w3.org/2000/svg"
   xmlns:sodipodi="http://sodipodi.sourceforge.net/DTD/sodipodi-0.dtd"
   xmlns:inkscape="http://www.inkscape.org/namespaces/inkscape"
   version="1.1"
   id="svg2"
   xml:space="preserve"
   width="1000"
   height="666.66669"
   viewBox="0 0 1000 666.66669"
   sodipodi:docname="2827395.eps"><metadata
     id="metadata8"><rdf:RDF><cc:Work
         rdf:about=""><dc:format>image/svg+xml</dc:format><dc:type
           rdf:resource="http://purl.org/dc/dcmitype/StillImage" /></cc:Work></rdf:RDF></metadata><defs
     id="defs6" /><sodipodi:namedview
     pagecolor="#ffffff"
     bordercolor="#666666"
     borderopacity="1"
     objecttolerance="10"
     gridtolerance="10"
     guidetolerance="10"
     inkscape:pageopacity="0"
     inkscape:pageshadow="2"
     inkscape:window-width="640"
     inkscape:window-height="480"
     id="namedview4" /><g
     id="g10"
     inkscape:groupmode="layer"
     inkscape:label="ink_ext_XXXXXX"
     transform="matrix(1.3333333,0,0,-1.3333333,0,666.66667)"><g
       id="g12"
       transform="scale(0.1)"><path
         d="M 7500,0 H 0 V 5000 H 7500 V 0"
         style="fill:#ffffff;fill-opacity:1;fill-rule:nonzero;stroke:none"
         id="path14" /><path
         d="m 2359.61,4363.84 h 1007.52 c 73.19,0 133.06,-59.86 133.06,-133.05 v -548.72 -40.6 -349.29 c 0,-6.14 -3.5,-11.37 -9.16,-13.72 -5.68,-2.35 -11.85,-1.12 -16.19,3.22 l -226.74,226.73 h -888.49 c -73.19,0 -133.07,59.88 -133.07,133.06 v 589.32 c 0,73.19 59.88,133.05 133.07,133.05"
         style="fill:#d7effb;fill-opacity:1;fill-rule:evenodd;stroke:none"
         id="path16" /><path
         d="m 1578.11,618.441 c 0,0 -528.56,318.02 -400.36,867.209 0,0 3.75,14.07 -8.53,16.33 -12.29,2.29 -274.919,-420.18 92.05,-806.898 z m -148.96,208.957 c 0,0 -494.654,589.852 82.43,1100.652 0,0 -518.197,577.42 -188.43,1232.57 329.76,655.16 965.73,599.63 1472.16,466.38 506.42,-133.25 1165.95,-66.62 1672.36,455.27 506.43,521.91 1095.3,410.87 1319.07,166.57 223.76,-244.29 282.64,-743.99 35.32,-1243.68 -247.31,-499.7 -106,-821.71 106,-1066.01 211.99,-244.29 235.54,-924.3 -270.89,-1111.752 H 1429.15 v 0"
         style="fill:#d7effb;fill-opacity:1;fill-rule:evenodd;stroke:none"
         id="path18" /><path
         d="m 4378.18,2108.8 c 609.65,57.47 496.02,-572.57 102.89,-969.76 -72.05,-72.79 -186.95,-172.399 -328.32,-290.22 H 2928.82 c 473.53,664.63 1030.65,1220.5 1449.36,1259.98"
         style="fill:#a0ccef;fill-opacity:1;fill-rule:evenodd;stroke:none"
         id="path20" /><path
         d="m 3390.4,848.82 c 599.9,597.3 1143.78,992.72 1147.12,995.16 10.98,8.06 26.4,5.67 34.45,-5.3 8.05,-10.98 5.66,-26.41 -5.32,-34.46 -3.25,-2.38 -524.11,-381.05 -1106.88,-955.4 h -69.37"
         style="fill:#91bde8;fill-opacity:1;fill-rule:evenodd;stroke:none"
         id="path22" /><path
         d="m 3957.24,3544.22 c 250.21,78.81 259.16,-195.32 130.14,-396.99 -122.33,-191.21 -659.4,-784.79 -781,-1090.07 l -65.92,35.11 c 35.61,455.54 396.45,1351.07 716.78,1451.95"
         style="fill:#a0ccef;fill-opacity:1;fill-rule:evenodd;stroke:none"
         id="path24" /><path
         d="m 3264.7,2079.36 c 153.34,666.24 780.93,1365.85 783.04,1368.24 3.89,4.35 10.57,4.74 14.93,0.87 4.34,-3.88 4.73,-10.56 0.86,-14.92 -2.12,-2.38 -630.46,-702.78 -779.76,-1364.35 l -19.07,10.16"
         style="fill:#91bde8;fill-opacity:1;fill-rule:evenodd;stroke:none"
         id="path26" /><path
         d="m 4096.3,3130.67 c 247.99,31.53 209.98,-227.06 54.82,-394.35 -128.56,-138.61 -606.37,-511.9 -835.35,-781.14 l -105.07,39.62 c 153.38,433.63 592.85,1098.65 885.6,1135.87"
         style="fill:#bcdff6;fill-opacity:1;fill-rule:evenodd;stroke:none"
         id="path28" /><path
         d="m 3249.08,1980.33 c 287.89,556.12 913.48,1042.63 915.74,1044.4 4.38,3.42 10.7,2.65 14.13,-1.72 3.42,-4.37 2.66,-10.69 -1.71,-14.12 -2.24,-1.76 -623.81,-485.13 -909.49,-1035.6 l -18.67,7.04"
         style="fill:#a0ccef;fill-opacity:1;fill-rule:evenodd;stroke:none"
         id="path30" /><path
         d="m 949.551,546.742 c 24.613,0 44.75,20.129 44.75,44.746 v 3.731 c 0,24.621 -20.137,44.75 -44.75,44.75 v 0 c -24.61,0 -44.754,-20.129 -44.754,-44.75 v -3.731 c 0,-24.617 20.141,-44.746 44.754,-44.746 z M 914.59,848.82 h 5628.47 c 36.9,0 67.13,-30.218 67.13,-67.121 v -0.008 c 0,-36.91 -30.21,-67.132 -67.13,-67.132 h -226.49 c -20.52,0 -37.3,-16.789 -37.3,-37.278 v 0 c 0,-20.519 16.78,-37.312 37.3,-37.312 h 82.85 c 25.64,0 46.63,-20.981 46.63,-46.61 v 0 c 0,-25.64 -20.98,-46.617 -46.63,-46.617 H 1065.63 c -25.64,0 -46.62,20.969 -46.62,46.617 v 0 c 0,25.629 20.98,46.61 46.62,46.61 h 65.26 c 20.51,0 37.29,16.793 37.29,37.312 v 0 c 0,20.5 -16.78,37.278 -37.29,37.278 h -216.3 c -36.922,0 -67.129,30.211 -67.129,67.132 v 0.008 c 0,36.91 30.234,67.121 67.129,67.121 v 0"
         style="fill:#1a1732;fill-opacity:1;fill-rule:evenodd;stroke:none"
         id="path32" /><path
         d="m 6074.36,2673.76 c -14.66,-4.23 -28.57,-10.2 -41.48,-17.66 -13.24,-7.66 -25.45,-16.88 -36.39,-27.42 -2.13,-2.05 -5.31,-2.36 -7.75,-0.95 l -49.16,28.39 -0.27,0.16 c -2.83,1.54 -6.04,1.82 -8.97,1.03 -3.03,-0.81 -5.74,-2.76 -7.42,-5.66 l -0.2,-0.33 -34.59,-59.92 c -1.67,-2.89 -2,-6.22 -1.18,-9.26 0.8,-3.02 2.76,-5.73 5.66,-7.4 l 0.33,-0.21 48.76,-28.16 c 2.57,-1.47 3.74,-4.44 3.07,-7.17 h 0.02 c -1.81,-7.25 -3.19,-14.71 -4.12,-22.35 -0.9,-7.45 -1.37,-15.06 -1.37,-22.8 0,-7.74 0.47,-15.35 1.37,-22.79 0.93,-7.64 2.32,-15.11 4.12,-22.35 0.74,-3.02 -0.77,-6.06 -3.44,-7.38 l -48.75,-28.15 0.01,-0.01 c -2.9,-1.67 -4.86,-4.39 -5.66,-7.41 -0.82,-3.04 -0.49,-6.37 1.18,-9.25 l 34.79,-60.26 v 0 c 1.68,-2.9 4.39,-4.85 7.42,-5.66 3.03,-0.81 6.34,-0.48 9.22,1.19 l 0.38,0.19 48.83,28.2 c 2.55,1.46 5.69,1 7.72,-0.94 10.93,-10.54 23.15,-19.78 36.39,-27.43 12.99,-7.51 26.98,-13.5 41.75,-17.73 2.86,-0.82 4.73,-3.43 4.73,-6.25 v -56.73 c 0,-3.34 1.37,-6.39 3.58,-8.59 2.2,-2.21 5.23,-3.59 8.58,-3.59 h 69.61 c 3.33,0 6.37,1.38 8.59,3.59 2.2,2.2 3.57,5.25 3.57,8.59 v 56.73 c 0,3.06 2.14,5.64 5.01,6.33 14.66,4.23 28.56,10.19 41.48,17.65 13.23,7.65 25.44,16.89 36.37,27.43 2.24,2.14 5.61,2.38 8.08,0.73 l 48.84,-28.19 c 2.9,-1.66 6.21,-1.99 9.24,-1.18 3.03,0.81 5.74,2.76 7.41,5.66 l 0.21,0.33 34.6,59.95 h -0.01 c 1.67,2.88 2,6.2 1.18,9.23 -0.81,3.03 -2.76,5.75 -5.62,7.41 l -49.13,28.36 c -2.57,1.47 -3.73,4.43 -3.08,7.18 v 0 c 1.8,7.24 3.18,14.7 4.11,22.35 0.9,7.44 1.37,15.05 1.37,22.79 0,7.74 -0.47,15.35 -1.37,22.81 -0.93,7.63 -2.31,15.09 -4.11,22.34 -0.74,3.02 0.75,6.06 3.44,7.38 l 48.77,28.16 c 2.86,1.66 4.81,4.37 5.62,7.4 0.82,3.03 0.49,6.35 -1.18,9.24 l -0.19,0.36 -34.6,59.92 -0.01,-0.01 c -1.67,2.9 -4.38,4.85 -7.41,5.66 -3.03,0.81 -6.34,0.49 -9.23,-1.17 v -0.02 l -49.17,-28.39 c -2.63,-1.52 -5.86,-0.99 -7.89,1.08 -10.9,10.5 -23.08,19.67 -36.25,27.29 -12.99,7.51 -26.99,13.5 -41.74,17.74 -2.86,0.82 -4.74,3.42 -4.74,6.25 v 56.73 c 0,3.34 -1.37,6.37 -3.57,8.59 -2.22,2.21 -5.26,3.57 -8.59,3.57 h -69.61 c -3.35,0 -6.38,-1.36 -8.58,-3.57 -2.21,-2.22 -3.58,-5.25 -3.58,-8.59 v -56.73 c 0,-3.07 -2.13,-5.64 -5,-6.33 z m -22.87,-104.88 c 19.15,19.14 45.61,30.99 74.84,30.99 29.21,0 55.67,-11.85 74.81,-30.99 19.16,-19.16 31.01,-45.61 31.01,-74.83 0,-29.22 -11.85,-55.67 -31.01,-74.83 -19.14,-19.13 -45.6,-30.99 -74.81,-30.99 -29.23,0 -55.69,11.86 -74.84,30.99 -19.14,19.16 -30.98,45.61 -30.98,74.83 0,29.22 11.84,55.67 30.98,74.83 z m -55.01,-209.46 v 0 0"
         style="fill:#d7effb;fill-opacity:1;fill-rule:evenodd;stroke:none"
         id="path34" /><path
         d="m 6345.05,3546.47 c -10.15,-4.32 -19.98,-9.24 -29.45,-14.71 -9.66,-5.58 -18.93,-11.73 -27.74,-18.37 -8.83,-6.67 -17.29,-13.88 -25.28,-21.6 -0.31,-0.29 -0.7,-0.46 -1.12,-0.51 -0.42,-0.05 -0.84,0.03 -1.2,0.23 -23.44,13.53 -46.93,27.02 -70.34,40.62 -2.78,1.51 -5.78,2.42 -8.81,2.77 -3.11,0.35 -6.26,0.11 -9.23,-0.7 -3.09,-0.82 -6.03,-2.25 -8.63,-4.22 -2.48,-1.91 -4.64,-4.32 -6.29,-7.19 -17,-27.52 -33.12,-57.33 -49.39,-85.48 -1.65,-2.86 -2.65,-5.96 -3.05,-9.1 -0.42,-3.24 -0.18,-6.5 0.64,-9.56 0.82,-3.09 2.25,-6.02 4.23,-8.61 1.91,-2.5 4.32,-4.66 7.18,-6.31 22.43,-13.85 46.75,-27 69.7,-40.25 0.35,-0.2 0.62,-0.53 0.79,-0.9 0.17,-0.39 0.21,-0.83 0.1,-1.23 l -1.59,-6.5 0.09,-0.03 c -0.71,-3.16 -1.35,-6.37 -1.96,-9.63 -1.01,-5.58 -1.85,-11.06 -2.52,-16.44 -0.63,-5.34 -1.14,-10.85 -1.47,-16.51 -0.35,-5.7 -0.53,-11.27 -0.53,-16.69 0,-5.43 0.18,-10.98 0.53,-16.67 0.33,-5.67 0.84,-11.19 1.47,-16.53 0.67,-5.38 1.51,-10.87 2.53,-16.44 1.02,-5.54 2.18,-10.93 3.47,-16.17 0.11,-0.43 0.06,-0.88 -0.12,-1.26 -0.21,-0.42 -0.51,-0.76 -0.86,-0.94 -25.62,-13.67 -51.62,-29.76 -76.93,-44.4 l 0.9,-1.12 -0.78,-0.97 c -1.98,-2.59 -3.41,-5.53 -4.23,-8.61 -0.82,-3.06 -1.06,-6.32 -0.64,-9.57 0.4,-3.13 1.4,-6.23 3.06,-9.08 l 53.06,-91.9 0.99,0.6 c 0.53,-0.49 1.07,-0.94 1.62,-1.38 2.6,-1.97 5.54,-3.4 8.63,-4.24 3.04,-0.81 6.29,-1.04 9.54,-0.62 3.05,0.39 6.06,1.35 8.85,2.91 23.22,12.31 47.1,27.19 70.01,40.43 0.35,0.19 0.76,0.25 1.18,0.2 0.42,-0.05 0.84,-0.23 1.14,-0.52 8,-7.72 16.44,-14.93 25.28,-21.58 8.8,-6.64 18.06,-12.78 27.72,-18.35 9.53,-5.52 19.44,-10.46 29.63,-14.81 10.16,-4.31 20.6,-8.02 31.25,-11.07 0.41,-0.13 0.79,-0.37 1.01,-0.69 0.26,-0.36 0.42,-0.78 0.39,-1.18 v -80.47 c 0,-3.29 0.68,-6.46 1.88,-9.37 1.27,-3.02 3.09,-5.73 5.37,-7.98 2.25,-2.25 4.97,-4.08 7.96,-5.33 2.89,-1.21 6.06,-1.88 9.35,-1.88 h 98.75 c 3.29,0 6.46,0.67 9.37,1.88 2.98,1.25 5.69,3.08 7.98,5.33 2.24,2.25 4.07,4.96 5.33,7.98 1.2,2.91 1.88,6.08 1.88,9.37 v 80.47 c 0,0.49 0.15,0.91 0.38,1.22 0.25,0.31 0.65,0.56 1.1,0.67 l 0.32,0.11 c 10.71,3.09 21.07,6.79 31.02,11.02 10.15,4.32 19.99,9.24 29.47,14.73 9.65,5.57 18.91,11.71 27.71,18.36 8.85,6.66 17.31,13.88 25.3,21.6 0.34,0.31 0.77,0.5 1.15,0.54 0.44,0.03 0.88,-0.07 1.26,-0.32 l 69.69,-40.23 c 2.87,-1.65 5.94,-2.65 9.06,-3.05 3.23,-0.41 6.49,-0.18 9.56,0.63 3.06,0.84 6.02,2.27 8.59,4.24 2.44,1.86 4.56,4.21 6.2,6.98 18.31,29.44 35.62,61.69 53.08,91.92 l -0.94,0.56 c 0.17,0.77 0.31,1.55 0.4,2.33 0.42,3.23 0.2,6.48 -0.62,9.55 -0.82,3.07 -2.26,6.02 -4.24,8.6 -1.91,2.5 -4.32,4.66 -7.17,6.31 l -69.71,40.25 c -0.35,0.19 -0.62,0.52 -0.79,0.89 -0.16,0.4 -0.2,0.85 -0.11,1.27 l 1.82,7.37 -0.1,0.02 c 0.62,2.86 1.2,5.78 1.74,8.74 1.02,5.56 1.87,11.06 2.53,16.45 0.64,5.34 1.15,10.86 1.49,16.53 0.34,5.69 0.51,11.24 0.51,16.67 0,5.41 -0.17,10.98 -0.51,16.66 -0.34,5.68 -0.85,11.2 -1.49,16.57 -0.65,5.34 -1.49,10.82 -2.53,16.44 -1.01,5.52 -2.18,10.91 -3.46,16.13 -0.11,0.42 -0.05,0.87 0.12,1.29 0.19,0.38 0.51,0.71 0.89,0.9 l 69.62,40.2 c 2.87,1.67 5.28,3.82 7.16,6.31 1.98,2.62 3.41,5.55 4.23,8.6 0.82,3.05 1.04,6.31 0.62,9.55 -0.37,3.04 -1.35,6.06 -2.94,8.88 -16.58,30.73 -35.6,61.71 -53.15,92.11 l -1,-0.58 c -0.53,0.48 -1.07,0.93 -1.65,1.37 -2.57,1.97 -5.53,3.4 -8.59,4.22 -3.07,0.82 -6.33,1.06 -9.56,0.65 -3.15,-0.39 -6.22,-1.39 -9.05,-3.01 l -5.15,-2.96 0.01,-0.06 -64.65,-37.31 c -0.38,-0.23 -0.83,-0.3 -1.24,-0.24 -0.41,0.05 -0.8,0.24 -1.09,0.54 l -0.18,0.17 c -7.91,7.62 -16.36,14.81 -25.23,21.51 -8.85,6.65 -18.07,12.76 -27.59,18.27 -9.53,5.51 -19.45,10.46 -29.64,14.8 -10.16,4.3 -20.59,8.02 -31.25,11.07 -0.41,0.12 -0.77,0.37 -1.01,0.69 -0.26,0.35 -0.42,0.77 -0.39,1.18 v 80.48 c 0,3.28 -0.68,6.46 -1.88,9.36 -1.26,3.01 -3.09,5.73 -5.36,7.97 -2.27,2.26 -4.97,4.09 -7.95,5.34 -2.91,1.21 -6.08,1.88 -9.37,1.88 h -98.75 c -3.29,0 -6.46,-0.67 -9.35,-1.88 -2.99,-1.25 -5.71,-3.08 -7.99,-5.34 -4.45,-4.44 -7.22,-10.59 -7.22,-17.33 v -80.48 c 0,-0.47 -0.15,-0.89 -0.39,-1.23 -0.25,-0.32 -0.63,-0.56 -1.08,-0.66 l -0.32,-0.11 c -10.73,-3.1 -21.09,-6.79 -31.04,-11.03 z m 34.71,-3.03 c -9.85,-2.85 -19.54,-6.33 -29.01,-10.35 -9.61,-4.09 -18.91,-8.74 -27.87,-13.92 -9.07,-5.25 -17.84,-11.07 -26.24,-17.4 -8.45,-6.36 -16.44,-13.19 -23.98,-20.46 -2.68,-2.57 -6,-4.07 -9.43,-4.49 -3.49,-0.43 -7.12,0.28 -10.25,2.1 -23.13,13.35 -47.43,26.56 -70.08,40.46 -1.1,0.58 -2.25,0.92 -3.4,1.05 -1.31,0.15 -2.62,0.04 -3.87,-0.29 -1.28,-0.35 -2.5,-0.93 -3.53,-1.73 -1.01,-0.76 -1.89,-1.74 -2.56,-2.9 -16.85,-25.51 -33.77,-58.44 -49.37,-85.49 -0.67,-1.15 -1.08,-2.39 -1.23,-3.63 -0.18,-1.3 -0.05,-2.66 0.3,-3.98 0.33,-1.28 0.91,-2.49 1.71,-3.54 0.76,-1.01 1.76,-1.88 2.92,-2.55 20.79,-13.76 47.59,-27.51 69.63,-40.25 3.23,-1.85 5.59,-4.63 6.94,-7.79 0.48,-1.11 0.82,-2.25 1.04,-3.44 l 1.44,-0.47 -1.62,-6.5 c -1.25,-5.11 -2.36,-10.21 -3.3,-15.3 -0.9,-4.95 -1.68,-10.13 -2.35,-15.54 -0.64,-5.26 -1.12,-10.49 -1.42,-15.65 -0.31,-5.04 -0.47,-10.33 -0.47,-15.83 0,-5.51 0.16,-10.78 0.47,-15.82 0.3,-5.17 0.78,-10.4 1.42,-15.67 0.67,-5.4 1.46,-10.57 2.35,-15.53 0.95,-5.09 2.06,-10.2 3.31,-15.31 0.94,-3.79 0.49,-7.6 -1.05,-10.87 -1.49,-3.27 -4.1,-6.01 -7.45,-7.73 l -61.66,-35.61 0.02,-0.02 -7.3,-4.22 c -1.16,-0.66 -2.16,-1.55 -2.92,-2.55 -0.79,-1.04 -1.38,-2.25 -1.71,-3.54 -0.35,-1.32 -0.48,-2.68 -0.3,-3.98 0.15,-1.24 0.56,-2.48 1.23,-3.63 l 45.66,-79.11 0.01,0.01 3.7,-6.39 c 0.66,-1.16 1.55,-2.14 2.56,-2.9 1.03,-0.8 2.25,-1.39 3.53,-1.73 1.31,-0.35 2.67,-0.45 3.97,-0.29 1.22,0.16 2.45,0.57 3.6,1.23 22.09,13.88 47.02,27.12 69.82,40.28 3.25,1.85 6.8,2.5 10.17,2.09 3.5,-0.42 6.83,-1.96 9.45,-4.46 l 0.02,-0.02 c 7.54,-7.28 15.55,-14.12 23.99,-20.47 8.39,-6.32 17.16,-12.14 26.23,-17.39 9,-5.2 18.38,-9.89 28.06,-14 9.51,-4.04 19.36,-7.54 29.54,-10.45 3.57,-1.02 6.54,-3.16 8.63,-5.93 2.12,-2.8 3.33,-6.29 3.33,-9.95 l 0.03,-80.47 c 0,-1.35 0.26,-2.64 0.75,-3.79 0.48,-1.19 1.25,-2.3 2.19,-3.24 0.91,-0.94 2.03,-1.69 3.24,-2.2 1.16,-0.48 2.43,-0.74 3.79,-0.74 h 98.75 c 1.37,0 2.63,0.26 3.79,0.74 1.22,0.51 2.33,1.26 3.25,2.18 0.93,0.96 1.69,2.07 2.19,3.26 0.48,1.15 0.74,2.44 0.74,3.79 v 80.47 c 0,3.83 1.34,7.38 3.58,10.22 2.29,2.88 5.47,5 9.13,5.86 9.84,2.83 19.54,6.29 29,10.33 9.62,4.09 18.93,8.75 27.87,13.92 9.08,5.25 17.85,11.07 26.25,17.4 8.43,6.35 16.45,13.19 23.99,20.46 2.79,2.69 6.31,4.2 9.91,4.52 3.68,0.34 7.43,-0.55 10.59,-2.64 l 68.9,-39.78 c 1.14,-0.66 2.4,-1.06 3.64,-1.23 1.3,-0.16 2.66,-0.05 3.99,0.3 1.28,0.34 2.49,0.93 3.53,1.73 1,0.76 1.88,1.74 2.55,2.9 16.37,28.54 32.98,56.96 49.39,85.5 0.66,1.15 1.06,2.39 1.22,3.64 0.16,1.3 0.06,2.64 -0.31,3.96 -0.33,1.3 -0.91,2.52 -1.69,3.55 -0.77,1.03 -1.72,1.89 -2.87,2.54 l -69.69,40.24 c -3.25,1.86 -5.6,4.63 -6.94,7.8 -0.37,0.86 -0.67,1.74 -0.88,2.65 l -1.82,0.37 1.83,7.39 c 1.25,5.11 2.37,10.22 3.3,15.3 0.9,4.95 1.69,10.13 2.36,15.53 0.63,5.28 1.12,10.51 1.42,15.68 0.32,5.04 0.46,10.31 0.46,15.82 0,5.49 -0.14,10.77 -0.46,15.81 -0.3,5.16 -0.79,10.39 -1.42,15.66 -0.68,5.46 -1.47,10.67 -2.36,15.58 -0.94,5.07 -2.05,10.17 -3.3,15.27 -0.94,3.8 -0.47,7.62 1.05,10.89 1.51,3.26 4.1,6 7.4,7.7 l 69.02,39.86 c 1.14,0.63 2.11,1.52 2.9,2.53 0.78,1.02 1.35,2.24 1.69,3.56 0.37,1.32 0.47,2.66 0.31,3.96 -0.16,1.25 -0.56,2.49 -1.22,3.64 -16.86,25.06 -33.75,58.55 -49.39,85.5 -0.67,1.16 -1.55,2.14 -2.55,2.9 -1.04,0.8 -2.25,1.38 -3.53,1.73 -1.33,0.35 -2.69,0.46 -3.98,0.29 -1.22,-0.15 -2.46,-0.56 -3.64,-1.24 l -69.74,-40.26 c -3.28,-1.91 -6.97,-2.55 -10.45,-2.08 -3.5,0.48 -6.84,2.09 -9.44,4.65 -7.57,7.3 -15.55,14.11 -23.87,20.37 -8.28,6.24 -17.02,12.02 -26.16,17.3 -8.98,5.2 -18.36,9.88 -28.03,14 -9.52,4.03 -19.37,7.54 -29.54,10.45 -3.57,1.02 -6.55,3.16 -8.63,5.93 -2.13,2.8 -3.34,6.29 -3.34,9.95 l -0.03,80.48 c 0,1.34 -0.26,2.62 -0.74,3.77 -0.49,1.2 -1.26,2.3 -2.2,3.25 -0.91,0.94 -2.02,1.69 -3.24,2.2 -1.16,0.48 -2.42,0.75 -3.79,0.75 h -98.75 c -1.36,0 -2.63,-0.27 -3.79,-0.75 -1.21,-0.51 -2.33,-1.26 -3.25,-2.18 -1.8,-1.83 -2.93,-4.32 -2.93,-7.04 v -80.48 c 0,-3.86 -1.33,-7.4 -3.54,-10.22 -2.33,-2.88 -5.51,-4.99 -9.17,-5.84 z m 17.41,-115.85 c -17.44,-7.22 -33.16,-17.84 -46.35,-31.04 -13.21,-13.2 -23.83,-28.93 -31.03,-46.35 -6.98,-16.81 -10.82,-35.26 -10.82,-54.65 0,-19.4 3.84,-37.85 10.82,-54.66 7.2,-17.42 17.83,-33.15 31.03,-46.35 13.19,-13.2 28.93,-23.82 46.35,-31.04 16.79,-6.96 35.26,-10.8 54.66,-10.8 19.36,0 37.81,3.84 54.61,10.8 17.45,7.21 33.19,17.84 46.37,31.04 13.22,13.2 23.83,28.93 31.06,46.35 6.96,16.81 10.8,35.27 10.8,54.66 0,19.39 -3.84,37.84 -10.8,54.65 -7.22,17.42 -17.84,33.15 -31.06,46.35 -13.18,13.2 -28.92,23.82 -46.35,31.04 -16.79,6.96 -35.25,10.8 -54.63,10.8 -19.41,0 -37.87,-3.84 -54.66,-10.8 z m -56.66,-20.72 c 14.47,14.48 31.82,26.17 51.13,34.17 18.57,7.69 38.9,11.93 60.19,11.93 21.27,0 41.59,-4.24 60.15,-11.93 19.32,-8 36.67,-19.69 51.15,-34.17 14.48,-14.49 26.19,-31.84 34.16,-51.15 7.71,-18.57 11.95,-38.89 11.95,-60.17 0,-21.28 -4.24,-41.61 -11.95,-60.18 -7.99,-19.32 -19.68,-36.66 -34.16,-51.14 -14.47,-14.48 -31.81,-26.17 -51.11,-34.16 -18.56,-7.71 -38.91,-11.95 -60.19,-11.95 -21.29,0 -41.62,4.24 -60.19,11.94 -19.31,7.99 -36.66,19.69 -51.13,34.17 -14.48,14.48 -26.17,31.83 -34.17,51.14 -7.71,18.57 -11.95,38.9 -11.95,60.18 0,21.28 4.24,41.6 11.95,60.17 8,19.31 19.69,36.66 34.17,51.15 v 0"
         style="fill:#d7effb;fill-opacity:1;fill-rule:evenodd;stroke:none"
         id="path36" /><path
         d="m 2426.94,4415.16 h 1007.53 c 73.19,0 133.06,-59.87 133.06,-133.07 v -548.72 -40.59 -349.29 c 0,-6.14 -3.5,-11.38 -9.17,-13.73 -5.67,-2.35 -11.85,-1.12 -16.19,3.22 l -226.73,226.74 h -888.5 c -73.18,0 -133.05,59.87 -133.05,133.06 v 589.31 c 0,73.2 59.87,133.07 133.05,133.07"
         style="fill:#e93055;fill-opacity:1;fill-rule:evenodd;stroke:none"
         id="path38" /><path
         d="m 2533.07,3727.83 h 522.66 c 23.81,0 43.29,19.47 43.29,43.29 v 396.81 c 0,23.8 -19.48,43.28 -43.29,43.28 h -21.24 v 20.15 c 0,6.56 -5.36,11.91 -11.92,11.91 h -157.91 c -6.55,0 -11.92,-5.36 -11.92,-11.91 v -20.15 h -319.67 c -23.81,0 -43.3,-19.48 -43.3,-43.28 v -396.81 c 0,-23.81 19.49,-43.29 43.3,-43.29"
         style="fill:#f6ae1c;fill-opacity:1;fill-rule:evenodd;stroke:none"
         id="path40" /><path
         d="m 2897.81,3727.83 h -330.28 c -19.39,0 -35.27,15.87 -35.27,35.27 v 337.1 c 0,19.39 15.88,35.26 35.27,35.26 h 330.28 c 19.4,0 35.27,-15.87 35.27,-35.26 v -337.1 c 0,-19.4 -15.87,-35.27 -35.27,-35.27"
         style="fill:#ffffff;fill-opacity:1;fill-rule:evenodd;stroke:none"
         id="path42" /><path
         d="m 2585.17,3727.83 h 482.58 c 23.82,0 51.97,19.47 62.58,43.29 l 152.12,341.49 c 10.61,23.81 -0.2,43.29 -24.01,43.29 h -25.36 l 9.54,21.44 c 3.87,8.68 -0.07,15.8 -8.76,15.8 h -176.14 c -8.69,0 -18.97,-7.12 -22.84,-15.8 l -9.54,-21.44 h -249.48 c -23.81,0 -51.96,-19.48 -62.57,-43.29 l -152.12,-341.49 c -10.61,-23.82 0.2,-43.29 24,-43.29"
         style="fill:#f9c330;fill-opacity:1;fill-rule:evenodd;stroke:none"
         id="path44" /><path
         d="m 2948.85,4079.48 c -36.85,0 -73.72,-14.05 -101.85,-42.18 -28.12,-28.13 -42.19,-65 -42.19,-101.86 0,-36.86 14.07,-73.72 42.19,-101.85 28.13,-28.12 65,-42.18 101.85,-42.18 36.86,0 73.73,14.06 101.85,42.18 28.13,28.13 42.19,64.99 42.19,101.85 0,36.86 -14.06,73.73 -42.19,101.86 -28.12,28.13 -64.99,42.18 -101.85,42.18 z m -118.87,-25.16 c 32.82,32.82 75.85,49.24 118.87,49.24 43.02,0 86.05,-16.42 118.88,-49.24 32.83,-32.82 49.24,-75.85 49.23,-118.88 0,-43.02 -16.41,-86.04 -49.23,-118.87 -32.83,-32.82 -75.86,-49.24 -118.88,-49.24 -43.02,0 -86.05,16.42 -118.87,49.24 -32.83,32.83 -49.24,75.85 -49.24,118.87 0,43.03 16.41,86.06 49.24,118.88 v 0"
         style="fill:#1a1732;fill-opacity:1;fill-rule:evenodd;stroke:none"
         id="path46" /><path
         d="m 3050.7,3816.57 c -4.7,4.7 -4.7,12.33 0,17.02 4.71,4.71 12.33,4.71 17.03,0 l 39.78,-39.79 c 4.71,-4.69 4.71,-12.32 0,-17.02 -4.7,-4.7 -12.31,-4.7 -17.02,0 l -39.79,39.79"
         style="fill:#1a1732;fill-opacity:1;fill-rule:evenodd;stroke:none"
         id="path48" /><path
         d="m 3092.12,3758.13 c -9.41,9.4 -9.41,24.65 0,34.05 9.39,9.41 24.64,9.41 34.05,0 l 128.24,-128.24 c 9.4,-9.4 9.4,-24.65 0,-34.05 -9.4,-9.41 -24.65,-9.41 -34.05,0 l -128.24,128.24"
         style="fill:#1a1732;fill-opacity:1;fill-rule:evenodd;stroke:none"
         id="path50" /><path
         d="m 2853.45,4004.1 c -2.56,-3.55 -7.51,-4.35 -11.06,-1.8 -3.55,2.55 -4.36,7.5 -1.8,11.06 2.12,2.94 4.34,5.78 6.65,8.48 l 0.37,0.41 c 2.4,2.79 4.71,5.31 6.92,7.52 3.11,3.1 8.14,3.1 11.25,0 3.1,-3.11 3.1,-8.14 0,-11.25 -2.36,-2.34 -4.4,-4.53 -6.15,-6.55 l -0.35,-0.44 c -2.1,-2.47 -4.05,-4.95 -5.83,-7.43 z m 12.33,-151.74 c 3.1,-3.09 3.1,-8.13 0,-11.23 -3.11,-3.11 -8.14,-3.11 -11.25,0 -12.74,12.74 -22.38,27.47 -28.91,43.24 -6.78,16.34 -10.16,33.73 -10.16,51.07 0,8.09 0.76,16.27 2.26,24.41 1.48,7.97 3.71,15.85 6.67,23.56 1.56,4.08 6.13,6.13 10.22,4.56 4.08,-1.56 6.13,-6.14 4.56,-10.22 -2.59,-6.73 -4.54,-13.68 -5.85,-20.75 -1.3,-7.04 -1.96,-14.26 -1.96,-21.56 0,-15.36 2.98,-30.69 8.92,-45.05 5.71,-13.78 14.21,-26.74 25.5,-38.03 z m 181.97,19.59 c 2.37,3.69 7.28,4.76 10.97,2.4 3.69,-2.38 4.76,-7.28 2.39,-10.97 -2.54,-3.95 -5.33,-7.82 -8.36,-11.57 -3.05,-3.78 -6.25,-7.35 -9.57,-10.68 -3.11,-3.11 -8.15,-3.11 -11.26,0 -3.09,3.1 -3.09,8.14 0,11.23 3.11,3.11 5.94,6.24 8.47,9.38 2.65,3.28 5.1,6.7 7.36,10.21 z m -15.83,146.57 c -3.09,3.11 -3.09,8.14 0,11.25 3.11,3.1 8.15,3.1 11.26,0 12.74,-12.74 22.38,-27.48 28.91,-43.25 6.74,-16.3 10.12,-33.68 10.12,-51.08 h 0.03 c 0,-12.42 -1.73,-24.87 -5.2,-36.93 -1.2,-4.22 -5.59,-6.67 -9.82,-5.47 -4.22,1.2 -6.66,5.59 -5.47,9.82 3.06,10.62 4.59,21.59 4.59,32.58 h 0.03 c 0,15.33 -2.99,30.65 -8.95,45.06 -5.71,13.79 -14.2,26.73 -25.5,38.02 v 0"
         style="fill:#ffffff;fill-opacity:1;fill-rule:evenodd;stroke:none"
         id="path52" /><path
         d="m 3037.5,4306.21 h 379.99 c 4.85,0 8.82,-3.97 8.82,-8.81 v 0 c 0,-4.85 -3.97,-8.82 -8.82,-8.82 H 3037.5 c -4.84,0 -8.82,3.97 -8.82,8.82 v 0 c 0,4.84 3.98,8.81 8.82,8.81"
         style="fill:#f3f0f9;fill-opacity:1;fill-rule:evenodd;stroke:none"
         id="path54" /><path
         d="m 3037.5,4250.9 h 379.99 c 4.85,0 8.82,-3.97 8.82,-8.81 v 0 c 0,-4.86 -3.97,-8.82 -8.82,-8.82 H 3037.5 c -4.84,0 -8.82,3.96 -8.82,8.82 v 0 c 0,4.84 3.98,8.81 8.82,8.81"
         style="fill:#f3f0f9;fill-opacity:1;fill-rule:evenodd;stroke:none"
         id="path56" /><path
         d="m 3345.74,4189.98 h 71.75 c 4.85,0 8.82,-3.97 8.82,-8.82 v 0 c 0,-4.85 -3.97,-8.82 -8.82,-8.82 h -71.75 c -4.85,0 -8.81,3.97 -8.81,8.82 v 0 c 0,4.85 3.96,8.82 8.81,8.82"
         style="fill:#f3f0f9;fill-opacity:1;fill-rule:evenodd;stroke:none"
         id="path58" /><path
         d="m 3345.74,4127.45 h 71.75 c 4.85,0 8.82,-3.97 8.82,-8.82 v 0 c 0,-4.85 -3.97,-8.82 -8.82,-8.82 h -71.75 c -4.85,0 -8.81,3.97 -8.81,8.82 v 0 c 0,4.85 3.96,8.82 8.81,8.82"
         style="fill:#f3f0f9;fill-opacity:1;fill-rule:evenodd;stroke:none"
         id="path60" /><path
         d="m 3345.74,4064.92 h 71.75 c 4.85,0 8.82,-3.97 8.82,-8.81 v 0 c 0,-4.86 -3.97,-8.82 -8.82,-8.82 h -71.75 c -4.85,0 -8.81,3.96 -8.81,8.82 v 0 c 0,4.84 3.96,8.81 8.81,8.81"
         style="fill:#f3f0f9;fill-opacity:1;fill-rule:evenodd;stroke:none"
         id="path62" /><path
         d="m 3345.74,4002.39 h 71.75 c 4.85,0 8.82,-3.97 8.82,-8.82 v 0 c 0,-4.84 -3.97,-8.81 -8.82,-8.81 h -71.75 c -4.85,0 -8.81,3.97 -8.81,8.81 v 0 c 0,4.85 3.96,8.82 8.81,8.82"
         style="fill:#f3f0f9;fill-opacity:1;fill-rule:evenodd;stroke:none"
         id="path64" /><path
         d="m 3345.74,3939.86 h 71.75 c 4.85,0 8.82,-3.96 8.82,-8.81 v 0 c 0,-4.85 -3.97,-8.81 -8.82,-8.81 h -71.75 c -4.85,0 -8.81,3.96 -8.81,8.81 v 0 c 0,4.85 3.96,8.81 8.81,8.81"
         style="fill:#f3f0f9;fill-opacity:1;fill-rule:evenodd;stroke:none"
         id="path66" /><path
         d="m 3345.74,3877.34 h 71.75 c 4.85,0 8.82,-3.97 8.82,-8.81 v 0 c 0,-4.86 -3.97,-8.83 -8.82,-8.83 h -71.75 c -4.85,0 -8.81,3.97 -8.81,8.83 v 0 c 0,4.84 3.96,8.81 8.81,8.81"
         style="fill:#f3f0f9;fill-opacity:1;fill-rule:evenodd;stroke:none"
         id="path68" /><path
         d="m 3235.5,3814.81 h 181.99 c 4.85,0 8.82,-3.97 8.82,-8.81 v -0.01 c 0,-4.84 -3.97,-8.81 -8.82,-8.81 H 3235.5 c -4.84,0 -8.81,3.97 -8.81,8.81 v 0.01 c 0,4.84 3.97,8.81 8.81,8.81"
         style="fill:#f3f0f9;fill-opacity:1;fill-rule:evenodd;stroke:none"
         id="path70" /><path
         d="m 3253.54,3877.34 h 53.72 c 4.85,0 8.82,-3.97 8.82,-8.81 v 0 c 0,-4.86 -3.97,-8.83 -8.82,-8.83 h -53.72 c -4.85,0 -8.82,3.97 -8.82,8.83 v 0 c 0,4.84 3.97,8.81 8.82,8.81"
         style="fill:#f3f0f9;fill-opacity:1;fill-rule:evenodd;stroke:none"
         id="path72" /><path
         d="m 3277.6,3939.86 h 27.06 c 4.85,0 8.82,-3.96 8.82,-8.81 v 0 c 0,-4.85 -3.97,-8.81 -8.82,-8.81 h -27.06 c -4.85,0 -8.81,3.96 -8.81,8.81 v 0 c 0,4.85 3.96,8.81 8.81,8.81"
         style="fill:#f3f0f9;fill-opacity:1;fill-rule:evenodd;stroke:none"
         id="path74" /><path
         d="m 3296.46,4002.39 h 19.8 c 4.86,0 8.83,-3.97 8.83,-8.82 v 0 c 0,-4.84 -3.97,-8.81 -8.83,-8.81 h -19.8 c -4.86,0 -8.82,3.97 -8.82,8.81 v 0 c 0,4.85 3.96,8.82 8.82,8.82"
         style="fill:#f3f0f9;fill-opacity:1;fill-rule:evenodd;stroke:none"
         id="path76" /><path
         d="m 2550.65,3325.86 h 42.52 c 7.78,0 14.16,-6.36 14.16,-14.16 v -42.51 c 0,-7.78 -6.38,-14.17 -14.16,-14.17 h -42.52 c -7.79,0 -14.16,6.39 -14.16,14.17 v 42.51 c 0,7.8 6.37,14.16 14.16,14.16"
         style="fill:#8abee9;fill-opacity:1;fill-rule:evenodd;stroke:none"
         id="path78" /><path
         d="m 2695.86,3325.86 h 42.52 c 7.78,0 14.15,-6.36 14.15,-14.16 v -42.51 c 0,-7.78 -6.37,-14.17 -14.15,-14.17 h -42.52 c -7.79,0 -14.15,6.39 -14.15,14.17 v 42.51 c 0,7.8 6.36,14.16 14.15,14.16"
         style="fill:#ffffff;fill-opacity:1;fill-rule:evenodd;stroke:none"
         id="path80" /><path
         d="m 2841.07,3325.86 h 42.51 c 7.79,0 14.16,-6.36 14.16,-14.16 v -42.51 c 0,-7.78 -6.37,-14.17 -14.16,-14.17 h -42.51 c -7.79,0 -14.16,6.39 -14.16,14.17 v 42.51 c 0,7.8 6.37,14.16 14.16,14.16"
         style="fill:#8abee9;fill-opacity:1;fill-rule:evenodd;stroke:none"
         id="path82" /><path
         d="m 2986.27,3325.86 h 42.53 c 7.78,0 14.15,-6.36 14.15,-14.16 v -42.51 c 0,-7.78 -6.37,-14.17 -14.15,-14.17 h -42.53 c -7.78,0 -14.15,6.39 -14.15,14.17 v 42.51 c 0,7.8 6.37,14.16 14.15,14.16"
         style="fill:#8abee9;fill-opacity:1;fill-rule:evenodd;stroke:none"
         id="path84" /><path
         d="m 1364.43,3978.66 c 5.37,0 9.72,-6.22 9.72,-13.87 0,-7.66 -4.35,-13.88 -9.72,-13.88 h -37.9 c -5.36,0 -9.71,6.22 -9.71,13.88 0,7.65 4.35,13.87 9.71,13.87 z m 61.68,-27.75 c -5.36,0 -9.71,6.22 -9.71,13.88 0,7.65 4.35,13.87 9.71,13.87 h 455.01 c 5.36,0 9.71,-6.22 9.71,-13.87 0,-7.66 -4.35,-13.88 -9.71,-13.88 h -455.01 v 0"
         style="fill:#8abee9;fill-opacity:1;fill-rule:evenodd;stroke:none"
         id="path86" /><path
         d="m 2013.38,3415.62 c 2.29,2.3 6.01,2.3 8.3,0 2.29,-2.29 2.29,-6.01 0,-8.3 l -18.66,-18.66 c -2.3,-2.29 -6.01,-2.29 -8.3,0 -2.29,2.29 -2.29,6.01 0,8.3 z m 21.43,-40 c 3.25,0 5.87,-2.62 5.87,-5.86 0,-3.24 -2.62,-5.87 -5.87,-5.87 h -26.4 c -3.23,0 -5.86,2.63 -5.86,5.87 0,3.24 2.63,5.86 5.86,5.86 h 26.4 z m -13.13,-43.43 c 2.29,-2.29 2.29,-6.01 0,-8.3 -2.29,-2.29 -6.01,-2.29 -8.3,0 l -18.66,18.66 c -2.29,2.3 -2.29,6.01 0,8.31 2.29,2.28 6,2.28 8.3,0 l 18.66,-18.67 z m -40,-21.43 c 0,-3.24 -2.62,-5.87 -5.86,-5.87 -3.25,0 -5.86,2.63 -5.86,5.87 v 26.4 c 0,3.24 2.61,5.87 5.86,5.87 3.24,0 5.86,-2.63 5.86,-5.87 v -26.4 z m -43.43,13.13 c -2.29,-2.29 -6.01,-2.29 -8.3,0 -2.29,2.29 -2.29,6.01 0,8.3 l 18.66,18.67 c 2.29,2.28 6.01,2.28 8.3,0 2.3,-2.3 2.3,-6.01 0,-8.31 l -18.66,-18.66 z m -21.43,40 c -3.24,0 -5.86,2.63 -5.86,5.87 0,3.24 2.62,5.86 5.86,5.86 h 26.4 c 3.24,0 5.86,-2.62 5.86,-5.86 0,-3.24 -2.62,-5.87 -5.86,-5.87 h -26.4 z m 13.13,43.43 c -2.29,2.29 -2.29,6.01 0,8.3 2.29,2.3 6.01,2.3 8.3,0 l 18.66,-18.66 c 2.3,-2.29 2.3,-6.01 0,-8.3 -2.29,-2.29 -6.01,-2.29 -8.3,0 l -18.66,18.66 z m 40.01,21.43 c 0,3.24 2.61,5.87 5.86,5.87 3.24,0 5.86,-2.63 5.86,-5.87 v -26.39 c 0,-3.24 -2.62,-5.87 -5.86,-5.87 -3.25,0 -5.86,2.63 -5.86,5.87 v 26.39 0"
         style="fill:#8abee9;fill-opacity:1;fill-rule:evenodd;stroke:none"
         id="path88" /><path
         d="m 5469,4120.19 c 2.28,2.29 6.01,2.29 8.3,0 2.29,-2.3 2.29,-6.01 0,-8.3 l -18.66,-18.67 c -2.29,-2.29 -6.01,-2.29 -8.31,0 -2.27,2.29 -2.27,6 0,8.3 z m 21.43,-40 c 3.24,0 5.87,-2.63 5.87,-5.87 0,-3.24 -2.63,-5.87 -5.87,-5.87 h -26.4 c -3.23,0 -5.87,2.63 -5.87,5.87 0,3.24 2.64,5.87 5.87,5.87 h 26.4 z m -13.13,-43.44 c 2.29,-2.28 2.29,-6.01 0,-8.29 -2.29,-2.29 -6.02,-2.29 -8.3,0 l -18.67,18.65 c -2.27,2.3 -2.27,6.02 0,8.31 2.3,2.29 6.02,2.29 8.31,0 l 18.66,-18.67 z m -40,-21.43 c 0,-3.23 -2.62,-5.86 -5.86,-5.86 -3.25,0 -5.87,2.63 -5.87,5.86 v 26.4 c 0,3.24 2.62,5.86 5.87,5.86 3.24,0 5.86,-2.62 5.86,-5.86 v -26.4 z m -43.43,13.14 c -2.29,-2.29 -6.02,-2.29 -8.29,0 -2.31,2.28 -2.31,6.01 0,8.29 l 18.65,18.67 c 2.3,2.29 6,2.29 8.31,0 2.28,-2.29 2.28,-6.01 0,-8.31 l -18.67,-18.65 z m -21.42,39.99 c -3.25,0 -5.87,2.63 -5.87,5.87 0,3.24 2.62,5.87 5.87,5.87 h 26.39 c 3.23,0 5.87,-2.63 5.87,-5.87 0,-3.24 -2.64,-5.87 -5.87,-5.87 h -26.39 z m 13.13,43.44 c -2.31,2.29 -2.31,6 0,8.3 2.27,2.29 6,2.29 8.29,0 l 18.67,-18.67 c 2.28,-2.3 2.28,-6.01 0,-8.3 -2.31,-2.29 -6.01,-2.29 -8.31,0 l -18.65,18.67 z m 39.99,21.43 c 0,3.23 2.62,5.86 5.87,5.86 3.24,0 5.86,-2.63 5.86,-5.86 v -26.4 c 0,-3.24 -2.62,-5.87 -5.86,-5.87 -3.25,0 -5.87,2.63 -5.87,5.87 v 26.4 0"
         style="fill:#8abee9;fill-opacity:1;fill-rule:evenodd;stroke:none"
         id="path90" /><path
         d="m 5917.91,1439.54 c 2.3,2.28 6.01,2.28 8.3,0 2.3,-2.29 2.3,-6 0,-8.31 l -18.66,-18.65 c -2.29,-2.3 -6.02,-2.3 -8.3,0 -2.3,2.28 -2.3,6 0,8.29 z m 21.44,-40 c 3.23,0 5.86,-2.64 5.86,-5.87 0,-3.23 -2.63,-5.87 -5.86,-5.87 h -26.4 c -3.25,0 -5.87,2.64 -5.87,5.87 0,3.23 2.62,5.87 5.87,5.87 h 26.4 z m -13.14,-43.43 c 2.3,-2.3 2.3,-6 0,-8.31 -2.29,-2.28 -6,-2.28 -8.3,0 l -18.66,18.66 c -2.3,2.3 -2.3,6.03 0,8.31 2.28,2.3 6.01,2.3 8.3,0 l 18.66,-18.66 z m -39.99,-21.43 c 0,-3.25 -2.64,-5.87 -5.88,-5.87 -3.23,0 -5.86,2.62 -5.86,5.87 v 26.39 c 0,3.24 2.63,5.87 5.86,5.87 3.24,0 5.88,-2.63 5.88,-5.87 v -26.39 z m -43.44,13.12 c -2.29,-2.28 -6,-2.28 -8.31,0 -2.27,2.31 -2.27,6.01 0,8.31 l 18.68,18.66 c 2.29,2.3 6.01,2.3 8.3,0 2.29,-2.28 2.29,-6.01 0,-8.31 l -18.67,-18.66 z m -21.42,40 c -3.23,0 -5.88,2.64 -5.88,5.87 0,3.23 2.65,5.87 5.88,5.87 h 26.38 c 3.25,0 5.87,-2.64 5.87,-5.87 0,-3.23 -2.62,-5.87 -5.87,-5.87 h -26.38 z m 13.11,43.43 c -2.27,2.31 -2.27,6.02 0,8.31 2.31,2.28 6.02,2.28 8.31,0 l 18.67,-18.67 c 2.29,-2.29 2.29,-6.01 0,-8.29 -2.29,-2.3 -6.01,-2.3 -8.3,0 l -18.68,18.65 z m 40.01,21.44 c 0,3.24 2.63,5.87 5.86,5.87 3.24,0 5.88,-2.63 5.88,-5.87 v -26.4 c 0,-3.23 -2.64,-5.87 -5.88,-5.87 -3.23,0 -5.86,2.64 -5.86,5.87 v 26.4 0"
         style="fill:#8abee9;fill-opacity:1;fill-rule:evenodd;stroke:none"
         id="path92" /><path
         d="m 877.066,2371.51 c 2.286,2.29 6.008,2.29 8.293,0 2.286,-2.28 2.286,-6 0,-8.31 l -18.664,-18.65 c -2.285,-2.29 -6.007,-2.29 -8.3,0 -2.282,2.28 -2.282,6 0,8.3 z m 21.426,-40 c 3.238,0 5.871,-2.63 5.871,-5.87 0,-3.23 -2.633,-5.86 -5.871,-5.86 h -26.398 c -3.239,0 -5.867,2.63 -5.867,5.86 0,3.24 2.628,5.87 5.867,5.87 h 26.398 z m -13.133,-43.42 c 2.286,-2.31 2.286,-6.02 0,-8.31 -2.285,-2.28 -6.007,-2.28 -8.293,0 l -18.671,18.67 c -2.282,2.28 -2.282,6.01 0,8.29 2.293,2.29 6.015,2.29 8.3,0 l 18.664,-18.65 z m -39.992,-21.44 c 0,-3.24 -2.633,-5.87 -5.871,-5.87 -3.234,0 -5.867,2.63 -5.867,5.87 v 26.4 c 0,3.23 2.633,5.87 5.867,5.87 3.238,0 5.871,-2.64 5.871,-5.87 v -26.4 z m -43.437,13.13 c -2.289,-2.28 -6.012,-2.28 -8.301,0 -2.285,2.29 -2.285,6 0,8.31 l 18.668,18.65 c 2.293,2.29 6.008,2.29 8.293,0 2.297,-2.28 2.297,-6.01 0,-8.29 l -18.66,-18.67 z m -21.434,40 c -3.234,0 -5.863,2.63 -5.863,5.86 0,3.24 2.629,5.87 5.863,5.87 h 26.399 c 3.242,0 5.875,-2.63 5.875,-5.87 0,-3.23 -2.633,-5.86 -5.875,-5.86 h -26.399 z m 13.133,43.42 c -2.285,2.31 -2.285,6.03 0,8.31 2.289,2.29 6.012,2.29 8.301,0 l 18.66,-18.66 c 2.297,-2.3 2.297,-6.02 0,-8.3 -2.285,-2.29 -6,-2.29 -8.293,0 l -18.668,18.65 z m 40,21.43 c 0,3.25 2.633,5.88 5.867,5.88 3.238,0 5.871,-2.63 5.871,-5.88 v -26.39 c 0,-3.23 -2.633,-5.87 -5.871,-5.87 -3.234,0 -5.867,2.64 -5.867,5.87 v 26.39 0"
         style="fill:#8abee9;fill-opacity:1;fill-rule:evenodd;stroke:none"
         id="path94" /><path
         d="m 6666.97,1818.44 c 2.28,2.3 6,2.3 8.29,0 2.3,-2.28 2.3,-6.01 0,-8.3 l -18.66,-18.67 c -2.29,-2.28 -6.01,-2.28 -8.3,0 -2.3,2.31 -2.3,6.01 0,8.32 z m 21.43,-39.99 c 3.22,0 5.86,-2.63 5.86,-5.87 0,-3.24 -2.64,-5.87 -5.86,-5.87 H 6662 c -3.24,0 -5.87,2.63 -5.87,5.87 0,3.24 2.63,5.87 5.87,5.87 h 26.4 z m -13.14,-43.44 c 2.3,-2.3 2.3,-6.01 0,-8.3 -2.29,-2.29 -6.01,-2.29 -8.29,0 l -18.67,18.67 c -2.3,2.29 -2.3,6.01 0,8.29 2.29,2.3 6.01,2.3 8.3,0 l 18.66,-18.66 z m -40,-21.43 c 0,-3.24 -2.62,-5.87 -5.87,-5.87 -3.24,0 -5.85,2.63 -5.85,5.87 v 26.39 c 0,3.24 2.61,5.88 5.85,5.88 3.25,0 5.87,-2.64 5.87,-5.88 v -26.39 z m -43.43,13.13 c -2.29,-2.29 -6.01,-2.29 -8.29,0 -2.3,2.29 -2.3,6 0,8.3 l 18.66,18.66 c 2.29,2.3 6,2.3 8.3,0 2.28,-2.28 2.28,-6 0,-8.29 l -18.67,-18.67 z m -21.43,40 c -3.23,0 -5.88,2.63 -5.88,5.87 0,3.24 2.65,5.87 5.88,5.87 h 26.4 c 3.24,0 5.86,-2.63 5.86,-5.87 0,-3.24 -2.62,-5.87 -5.86,-5.87 h -26.4 z m 13.14,43.43 c -2.3,2.29 -2.3,6.02 0,8.3 2.28,2.3 6,2.3 8.29,0 l 18.67,-18.65 c 2.28,-2.31 2.28,-6.01 0,-8.32 -2.3,-2.28 -6.01,-2.28 -8.3,0 l -18.66,18.67 z m 40,21.43 c 0,3.24 2.61,5.86 5.85,5.86 3.25,0 5.87,-2.62 5.87,-5.86 v -26.39 c 0,-3.24 -2.62,-5.87 -5.87,-5.87 -3.24,0 -5.85,2.63 -5.85,5.87 v 26.39 0"
         style="fill:#8abee9;fill-opacity:1;fill-rule:evenodd;stroke:none"
         id="path96" /><path
         d="m 6235.86,4121.07 h 42.52 c 7.77,0 14.15,-6.35 14.15,-14.15 v -42.52 c 0,-7.77 -6.38,-14.15 -14.15,-14.15 h -42.52 c -7.8,0 -14.16,6.38 -14.16,14.15 v 42.52 c 0,7.8 6.36,14.15 14.16,14.15"
         style="fill:#8abee9;fill-opacity:1;fill-rule:evenodd;stroke:none"
         id="path98" /><path
         d="m 6381.06,4121.07 h 42.52 c 7.77,0 14.15,-6.35 14.15,-14.15 v -42.52 c 0,-7.77 -6.38,-14.15 -14.15,-14.15 h -42.52 c -7.79,0 -14.16,6.38 -14.16,14.15 v 42.52 c 0,7.8 6.37,14.15 14.16,14.15"
         style="fill:#ffffff;fill-opacity:1;fill-rule:evenodd;stroke:none"
         id="path100" /><path
         d="m 6526.27,4121.07 h 42.52 c 7.78,0 14.16,-6.35 14.16,-14.15 v -42.52 c 0,-7.77 -6.38,-14.15 -14.16,-14.15 h -42.52 c -7.79,0 -14.15,6.38 -14.15,14.15 v 42.52 c 0,7.8 6.36,14.15 14.15,14.15"
         style="fill:#8abee9;fill-opacity:1;fill-rule:evenodd;stroke:none"
         id="path102" /><path
         d="m 6671.48,4121.07 h 42.51 c 7.79,0 14.16,-6.35 14.16,-14.15 v -42.52 c 0,-7.77 -6.37,-14.15 -14.16,-14.15 h -42.51 c -7.79,0 -14.16,6.38 -14.16,14.15 v 42.52 c 0,7.8 6.37,14.15 14.16,14.15"
         style="fill:#8abee9;fill-opacity:1;fill-rule:evenodd;stroke:none"
         id="path104" /><path
         d="m 888.203,3797.21 c -14.656,-4.23 -28.57,-10.19 -41.473,-17.65 -13.238,-7.66 -25.46,-16.88 -36.386,-27.43 -2.141,-2.05 -5.317,-2.36 -7.754,-0.94 l -49.176,28.39 -0.266,0.16 c -2.828,1.52 -6.023,1.81 -8.964,1.02 -3.028,-0.8 -5.743,-2.76 -7.407,-5.65 l -0.211,-0.34 -34.593,-59.92 c -1.664,-2.89 -1.996,-6.22 -1.18,-9.25 0.805,-3.03 2.758,-5.74 5.648,-7.41 l 0.336,-0.21 48.774,-28.16 c 2.558,-1.47 3.734,-4.43 3.062,-7.16 h 0.008 c -1.801,-7.25 -3.172,-14.72 -4.105,-22.36 -0.907,-7.45 -1.371,-15.06 -1.371,-22.8 0,-7.74 0.468,-15.35 1.371,-22.8 0.933,-7.63 2.316,-15.1 4.113,-22.35 0.742,-3.02 -0.754,-6.06 -3.43,-7.37 l -48.761,-28.16 0.003,-0.01 c -2.89,-1.66 -4.843,-4.38 -5.648,-7.41 -0.816,-3.03 -0.484,-6.37 1.18,-9.25 l 34.797,-60.26 h 0.007 c 1.664,-2.89 4.379,-4.85 7.403,-5.66 3.031,-0.8 6.351,-0.48 9.234,1.19 l 0.363,0.2 48.836,28.19 c 2.559,1.47 5.7,1 7.731,-0.94 10.926,-10.54 23.14,-19.77 36.379,-27.43 12.988,-7.5 26.992,-13.49 41.746,-17.73 2.863,-0.82 4.73,-3.42 4.73,-6.25 v -56.73 c 0,-3.33 1.371,-6.38 3.578,-8.58 2.211,-2.21 5.254,-3.59 8.59,-3.59 h 69.598 c 3.348,0 6.387,1.38 8.59,3.59 2.211,2.2 3.586,5.25 3.586,8.58 v 56.73 c 0,3.07 2.132,5.64 4.992,6.33 14.677,4.23 28.577,10.19 41.477,17.65 13.25,7.66 25.46,16.89 36.39,27.43 2.23,2.14 5.61,2.38 8.08,0.74 l 48.83,-28.19 c 2.89,-1.67 6.22,-2 9.25,-1.19 3.02,0.81 5.73,2.77 7.4,5.66 l 0.21,0.34 34.6,59.94 v 0 c 1.66,2.89 1.99,6.21 1.18,9.24 -0.81,3.03 -2.75,5.74 -5.62,7.4 l -49.14,28.37 c -2.56,1.47 -3.74,4.43 -3.06,7.16 h -0.02 c 1.8,7.26 3.19,14.72 4.11,22.36 0.91,7.45 1.38,15.06 1.38,22.8 0,7.74 -0.47,15.36 -1.38,22.8 -0.92,7.64 -2.3,15.11 -4.11,22.36 -0.73,3.01 0.77,6.05 3.44,7.37 l 48.78,28.16 c 2.87,1.66 4.81,4.37 5.62,7.41 0.81,3.02 0.48,6.34 -1.18,9.22 l -0.2,0.37 -34.59,59.92 h -0.02 c -1.67,2.89 -4.38,4.85 -7.4,5.65 -3.03,0.81 -6.36,0.48 -9.25,-1.18 h 0.02 l -49.18,-28.39 c -2.62,-1.52 -5.87,-1 -7.89,1.08 -10.9,10.48 -23.07,19.67 -36.25,27.29 -12.98,7.51 -26.98,13.5 -41.747,17.73 -2.855,0.82 -4.718,3.41 -4.722,6.25 v 56.72 c 0,3.34 -1.375,6.39 -3.586,8.59 -2.203,2.21 -5.242,3.58 -8.59,3.58 h -69.598 c -3.336,0 -6.379,-1.37 -8.59,-3.58 -2.207,-2.2 -3.578,-5.25 -3.578,-8.59 v -56.72 c 0,-3.07 -2.136,-5.65 -4.996,-6.33 z m -22.855,-104.89 c 19.144,19.15 45.597,31 74.824,31 29.219,0 55.672,-11.85 74.828,-31 19.15,-19.14 30.99,-45.6 30.99,-74.82 0,-29.22 -11.84,-55.67 -30.99,-74.83 -19.156,-19.14 -45.609,-31 -74.828,-31 -29.227,0 -55.68,11.86 -74.824,31 -19.157,19.16 -31,45.61 -31,74.83 0,29.22 11.843,55.68 31,74.82 z m -55.016,-209.46 v 0 0"
         style="fill:#d7effb;fill-opacity:1;fill-rule:evenodd;stroke:none"
         id="path106" /><path
         d="m 4156.36,2732.67 c -61.8,-56.3 -71.45,-62.98 -71.45,-62.98 0,0 -40.81,-77.49 -25.11,-77.42 15.71,0.05 28.23,14.23 28.23,14.23 0,0 15.3,-19.52 29.05,-11.38 13.74,8.15 20.99,11.19 20.99,11.19 0,0 15.77,-15.65 28.78,-5.46 13.01,10.2 75.13,77.26 75.13,77.26 l 82.1,53.82 -32.73,29.49 -134.99,-28.75"
         style="fill:#ec73b3;fill-opacity:1;fill-rule:evenodd;stroke:none"
         id="path108" /><path
         d="m 5157.57,1078.38 c -1.25,-8.67 -11.37,-52.28 -11.2,-53.37 1.78,-12.84 4.93,-38.58 4.93,-38.58 0,0 -25.13,-28.899 -48.46,-33.11 -23.31,-4.199 -129.17,-8.929 -130.51,-3.14 -1.34,5.781 26.46,51.49 26.46,51.49 0,0 30.06,25.21 34.09,83.53 4.03,58.33 124.69,-6.82 124.69,-6.82"
         style="fill:#f6bcd8;fill-opacity:1;fill-rule:evenodd;stroke:none"
         id="path110" /><path
         d="m 5020.09,989.84 12.97,4.648 c 0,0 29.38,-15.468 66.33,-2.859 36.97,12.641 46.98,33.381 46.98,33.381 0,0 1.79,4.21 5.78,4.21 3.96,0 5.24,0 8.71,0 3.47,0 13.09,-1.51 17.07,-10.97 3.97,-9.47 12.31,-67.219 0.96,-99.23 -11.35,-32 -27.26,-27.79 -27.26,-27.79 0,0 -63.15,18.629 -105.75,3.61 -42.6,-15.039 -81.61,-30.668 -81.61,-30.668 0,0 2.04,84.789 55.82,125.668"
         style="fill:#181520;fill-opacity:1;fill-rule:evenodd;stroke:none"
         id="path112" /><path
         d="m 4732.52,872.84 -4.69,13.789 c 0,0 0,10.5 0,16.75 0,6.269 2.62,25.133 20.84,25.133 18.21,0 53.64,0 69.81,0 16.18,0 103.69,44.488 170.94,99.198 0,0 4.75,5.57 11.8,1.51 7.05,-4.06 28.5,-21.2 30.67,-22.99 2.18,-1.82 2.45,-9.179 1.17,-11.742 -1.3,-2.547 -63.54,-125.808 -63.54,-125.808 0,0 -183.25,-24.051 -237,4.16"
         style="fill:#1a1a3d;fill-opacity:1;fill-rule:evenodd;stroke:none"
         id="path114" /><path
         d="m 4727.83,886.629 c 0,0 -4.12,-3.41 -4.12,-7.219 0,-3.801 0,-10.422 0,-13.418 0,-3.023 8.1,-17.101 26.16,-17.101 18.06,0 168.47,0 193.74,0 25.26,0 51.92,6.398 69.17,15.07 17.25,8.641 49.9,18.269 49.9,18.269 0,0 4.61,1.559 4.61,-6.378 0,-7.942 0,-11.532 0,-15.391 0,-3.852 -2.35,-14.32 13.45,-14.32 15.8,0 87.06,0 94.25,0 7.18,0 15.4,4.089 15.4,18.769 0,14.672 0,28.621 0,37.762 0,9.129 -5.55,16.348 -11.5,16.348 -5.96,0 -42.08,0 -72.47,0 -30.39,0 -54.62,-7.45 -92.41,-25.25 -37.77,-17.801 -72.26,-23.098 -111.7,-23.098 -39.41,0 -89.3,0 -108.39,0 -19.11,0 -53.19,4.34 -66.09,15.957"
         style="fill:#181520;fill-opacity:1;fill-rule:evenodd;stroke:none"
         id="path116" /><path
         d="m 5568.48,1078.38 c -1.26,-8.67 -11.37,-52.28 -11.2,-53.37 1.78,-12.84 4.93,-38.58 4.93,-38.58 0,0 -25.13,-28.899 -48.46,-33.11 -23.32,-4.199 -129.16,-8.929 -130.52,-3.14 -1.35,5.781 26.47,51.49 26.47,51.49 0,0 30.06,25.21 34.09,83.53 4.03,58.33 124.69,-6.82 124.69,-6.82"
         style="fill:#f6bcd8;fill-opacity:1;fill-rule:evenodd;stroke:none"
         id="path118" /><path
         d="m 5431,989.84 12.96,4.648 c 0,0 29.38,-15.468 66.33,-2.859 36.98,12.641 46.98,33.381 46.98,33.381 0,0 1.8,4.21 5.78,4.21 3.97,0 5.26,0 8.72,0 3.46,0 13.09,-1.51 17.07,-10.97 3.97,-9.47 12.31,-67.219 0.95,-99.23 -11.35,-32 -27.26,-27.79 -27.26,-27.79 0,0 -63.14,18.629 -105.73,3.61 -42.61,-15.039 -81.62,-30.668 -81.62,-30.668 0,0 2.05,84.789 55.82,125.668"
         style="fill:#181520;fill-opacity:1;fill-rule:evenodd;stroke:none"
         id="path120" /><path
         d="m 5143.42,872.84 -4.69,13.789 c 0,0 0,10.5 0,16.75 0,6.269 2.63,25.133 20.84,25.133 18.23,0 53.64,0 69.82,0 16.17,0 103.69,44.488 170.93,99.198 0,0 4.75,5.57 11.8,1.51 7.06,-4.06 28.5,-21.2 30.68,-22.99 2.18,-1.82 2.43,-9.179 1.16,-11.742 -1.28,-2.547 -63.52,-125.808 -63.52,-125.808 0,0 -183.26,-24.051 -237.02,4.16"
         style="fill:#1a1a3d;fill-opacity:1;fill-rule:evenodd;stroke:none"
         id="path122" /><path
         d="m 5138.73,886.629 c 0,0 -4.1,-3.41 -4.1,-7.219 0,-3.801 0,-10.422 0,-13.418 0,-3.023 8.08,-17.101 26.15,-17.101 18.07,0 168.47,0 193.73,0 25.27,0 51.93,6.398 69.18,15.07 17.26,8.641 49.89,18.269 49.89,18.269 0,0 4.62,1.559 4.62,-6.378 0,-7.942 0,-11.532 0,-15.391 0,-3.852 -2.35,-14.32 13.45,-14.32 15.82,0 87.05,0 94.25,0 7.18,0 15.39,4.089 15.39,18.769 0,14.672 0,28.621 0,37.762 0,9.129 -5.54,16.348 -11.5,16.348 -5.95,0 -42.08,0 -72.48,0 -30.38,0 -54.6,-7.45 -92.39,-25.25 -37.78,-17.801 -72.27,-23.098 -111.69,-23.098 -39.42,0 -89.32,0 -108.42,0 -19.09,0 -53.17,4.34 -66.08,15.957"
         style="fill:#181520;fill-opacity:1;fill-rule:evenodd;stroke:none"
         id="path124" /><path
         d="m 4418.74,3710.98 c 0,0 -43.67,-73.28 -16.26,-239.9 27.39,-166.61 216.49,-815.07 88.07,-1153.45 0,0 -7.93,-23.21 14.14,-35.98 22.08,-12.78 333.97,-66.91 562,30.22 228.03,97.16 -172.46,1349.7 -647.95,1399.11"
         style="fill:#3c7dc8;fill-opacity:1;fill-rule:evenodd;stroke:none"
         id="path126" /><path
         d="m 5025.08,1048.12 c 0,0 51.08,-31.02 137.49,-12.28 0,0 22,8.15 26.9,30.97 4.9,22.84 166.35,1381.84 185.9,1623.1 19.57,241.25 -127.85,388.58 -353.66,543.44 -225.8,154.86 -36.82,24.11 -54.33,34.04 -55.98,-207.28 -121.73,-340.61 -121.73,-340.61 l -0.5,-102.17 c -0.03,-7.04 3.47,-13.57 5.14,-20.24 68.82,-273.52 76.95,-491.76 87.28,-766.91 0.42,-8.03 -4.04,206.53 0.94,-24.03 4.97,-230.58 57.21,-893.59 60.47,-919.67 3.28,-26.08 14.67,-43.19 26.1,-45.64"
         style="fill:#1a1732;fill-opacity:1;fill-rule:evenodd;stroke:none"
         id="path128" /><path
         d="m 4460.36,3451.24 65.27,-105.92 c 0,0 276.57,-475.09 314.9,-542.76 38.33,-67.66 202.23,-58.06 202.23,-58.06 l -350.11,1017.64 c 0,0 -122.3,19.36 -169.72,18.35 -47.44,-1.01 -77.89,-73.61 -77.89,-73.61 l 15.32,-255.64"
         style="fill:#1a1732;fill-opacity:1;fill-rule:evenodd;stroke:none"
         id="path130" /><path
         d="m 4418.74,3710.98 c 0,0 -43.67,-73.28 -16.26,-239.9 21.18,-128.77 138.9,-545.35 132.01,-884.17 l 0.05,-0.02 c 60.23,616.71 -50.75,1006.86 -89.5,1119.99 -8.73,1.73 -17.5,3.19 -26.3,4.1"
         style="fill:#518ed2;fill-opacity:1;fill-rule:evenodd;stroke:none"
         id="path132" /><path
         d="m 5432.15,1047.19 c 0,0 47.45,-26.54 133.85,-7.8 0,0 22,8.16 26.89,30.97 4.88,22.84 69.51,478.49 89.06,719.74 19.56,241.26 183.53,1146.38 -249.32,1443.25 -432.86,296.87 -526.17,-215.34 -526.17,-215.34 0,0 403.83,-169.98 413.6,-623.15 9.78,-453.16 82.74,-1275.95 85.99,-1302.04 3.27,-26.06 14.67,-43.19 26.1,-45.63"
         style="fill:#222453;fill-opacity:1;fill-rule:evenodd;stroke:none"
         id="path134" /><path
         d="m 5467.71,1036.06 c 22.63,-4.15 55.74,-5.89 98.29,3.33 0,0 22,8.16 26.89,30.97 4.88,22.82 69.51,478.49 89.06,719.74 14.85,183.03 112.74,748.21 -29.92,1139.97 -1.95,-1.37 -224.77,-157.52 -353.01,-376.56 12.25,-48.51 19.81,-101.3 21.04,-158.65 1.65,-76.47 5.12,-163.47 9.72,-255.4 55.01,59.04 128.11,138.49 165.22,183.03 64.13,76.95 136.28,49.7 161.93,12.82 25.65,-36.87 -72.15,-965.15 -84.97,-1083.79 -9.04,-83.49 -69.32,-170.96 -104.25,-215.46"
         style="fill:#201f49;fill-opacity:1;fill-rule:evenodd;stroke:none"
         id="path136" /><path
         d="m 4350.12,3968.73 c 0.66,0.07 2.57,-7.93 10.52,-21.35 l -39.3,-41.36 c 0,0 10.01,-12.7 24.43,-27.16 -17.86,-6.16 -33.22,-16.87 -42.97,-31.16 0,0 -42.17,-129.95 -29.93,-142.55 -0.43,-0.53 -0.87,-1.05 -1.33,-1.59 -75.95,-89.69 -122.58,-59.99 -132.08,-51.94 -9.5,8.04 -56.16,50.83 -61.2,51.82 -5.02,1 -23.05,-20.29 -35.19,-9.99 -12.18,10.3 -71.17,82.45 -135.39,183.83 -64.24,101.4 -27.98,218.19 -27.98,218.19 156.59,127.13 286.69,-112.27 302.44,-72.09 15.75,40.17 60.67,43.89 85.57,-0.69 3.48,-6.23 81.49,-47.3 82.41,-53.96"
         style="fill:#f6bcd8;fill-opacity:1;fill-rule:evenodd;stroke:none"
         id="path138" /><path
         d="m 4350.12,3968.73 c 0.66,0.07 2.57,-7.93 10.52,-21.35 l -39.3,-41.36 c 0,0 10.01,-12.7 24.43,-27.16 -4.4,-1.52 -8.68,-3.32 -12.72,-5.38 -0.72,7.51 -1.97,13.08 -3.98,15.4 -10.67,12.31 -31.95,38.72 -31.95,38.72 0,0 -29.78,-13.86 -35.38,19 -5.62,32.86 -30.87,64.93 -57.33,59.72 -26.44,-5.21 -11.26,-39.64 -11.26,-39.64 l 62.57,-90.22 -10.42,-107.42 c 0,0 -97.79,-17.64 -77.73,24.02 20.08,41.66 -31.29,73.78 -90.61,141.11 -59.31,67.35 -92.19,60.13 -107.43,49.71 -9.5,-6.5 -53.62,-36.09 -85.48,-57.43 -16.14,46.6 -16.16,92.01 -12.74,124.02 35.81,27.46 86.6,57.07 134.02,79.26 95.94,-21.1 165.55,-135.05 176.81,-106.35 15.75,40.17 60.67,43.89 85.57,-0.69 3.48,-6.23 81.49,-47.3 82.41,-53.96"
         style="fill:#ec73b3;fill-opacity:1;fill-rule:evenodd;stroke:none"
         id="path140" /><path
         d="m 4371.2,3968.87 c 0,0 30.49,-2.02 53.71,-3.03 23.22,-1.01 42.31,-136.49 42.31,-136.49 l -39.57,-60.17 -9.23,-14.01 -29.95,-45.55 -2.84,14.05 c 0,0 -31.35,24.29 -51.1,-3.05 -19.74,-27.33 -69.17,45.9 -69.17,45.9 0,0 -8.98,160.6 105.84,202.35"
         style="fill:#f6bcd8;fill-opacity:1;fill-rule:evenodd;stroke:none"
         id="path142" /><path
         d="m 4371.2,3968.87 c 0,0 30.49,-2.02 53.71,-3.03 23.22,-1.01 42.31,-136.5 42.31,-136.5 l -39.57,-60.16 -9.23,-14.01 -29.95,-45.56 -2.84,14.06 c 0,0 -31.35,24.29 -51.1,-3.05 -4.91,-6.8 -11.66,-7.37 -19.02,-4.39 l 13.56,56.41 c 0,0 10.68,103.93 0,116.24 -6.49,7.5 -16.92,20.22 -24.09,29.02 15.42,21.68 36.72,40.24 66.22,50.97"
         style="fill:#ec73b3;fill-opacity:1;fill-rule:evenodd;stroke:none"
         id="path144" /><path
         d="m 4127.69,3969.21 c -0.08,-0.03 -71.56,-34.92 -128.14,72.43 0,0 -73.26,-77.65 -121.01,-97.07 -0.94,-0.39 -1.96,-0.7 -2.97,-1 l 2.97,1 c 0,0 -20.4,-0.73 -42.79,9.14 -28.46,10.15 -64.67,31.56 -87.21,76.66 -41.68,83.37 8.01,125.86 52.9,120.25 0,0 67.33,146.7 105.01,189.99 37.68,43.28 125.85,24.84 125.85,24.84 0,0 -12.83,37.69 2.41,46.5 15.22,8.82 97.77,-7.5 129.85,-103.15 0,0 64.13,10.47 97.85,-22.19 33.63,-32.57 108.4,-316.25 108.79,-317.74 1.61,-18.1 -5.55,-36.33 -23.78,-36.99 -27.96,-0.05 -57.69,8.38 -78.86,36.85 0,0 -23.72,84.65 -65.43,71.84 0,0 -35.45,-0.33 -18.85,-59.91 0,0 14.34,-25.83 34.03,-43.03 19.74,-17.19 73.57,-53.01 111.06,-140.53 37.46,-87.53 -41.7,-142.86 -63.44,-168.51 -21.72,-25.65 -58.22,-45.65 -84.44,-23.43 -26.24,22.2 -85.38,72.31 -94.36,79.89 -8.95,7.61 -11.05,15.94 -8.87,18.39 0,0 38.17,40.5 67.14,68.32 28.96,27.85 51.59,45.9 51.61,77.71 0.01,31.79 -0.75,56.91 -29.95,89.47 -11.98,13.38 -25.93,23.27 -39.37,30.27"
         style="fill:#1a1732;fill-opacity:1;fill-rule:evenodd;stroke:none"
         id="path146" /><path
         d="m 3999.55,4041.64 c 0,0 -73.26,-77.65 -121.01,-97.07 -0.94,-0.39 -1.96,-0.7 -2.97,-1 l 2.97,1 c 0,0 -20.4,-0.73 -42.79,9.14 -28.46,10.15 -64.67,31.56 -87.21,76.66 -41.68,83.37 8.01,125.86 52.9,120.25 0,0 67.33,146.7 105.01,189.99 37.68,43.28 125.85,24.84 125.85,24.84 0,0 -12.83,37.69 2.41,46.5 15.22,8.82 97.77,-7.5 129.85,-103.15 0,0 0.25,-95.56 -165.01,-267.16"
         style="fill:#1e1c42;fill-opacity:1;fill-rule:evenodd;stroke:none"
         id="path148" /><path
         d="m 3739.68,4051.21 c -24.2,69.55 20.78,104.53 61.76,99.41 0,0 259.74,-61.17 295.02,247.1 3.97,-2.38 7.96,-5.03 11.96,-8.01 3.43,-127.54 -34.61,-363.53 -368.74,-338.5"
         style="fill:#232556;fill-opacity:1;fill-rule:evenodd;stroke:none"
         id="path150" /><path
         d="m 4029.28,3827.14 v 0 c 6.97,5.9 17.5,5.02 23.4,-1.95 l 13.97,-16.53 c 5.89,-6.97 5.03,-17.5 -1.95,-23.4 v 0 c -6.98,-5.89 -17.5,-5.01 -23.39,1.96 l -13.99,16.53 c -5.88,6.97 -5.01,17.5 1.96,23.39"
         style="fill:#1a1732;fill-opacity:1;fill-rule:evenodd;stroke:none"
         id="path152" /><path
         d="m 4079.83,3784.13 c 10.35,8.75 25.83,7.45 34.59,-2.89 8.75,-10.35 7.45,-25.82 -2.9,-34.58 -10.35,-8.75 -25.82,-7.46 -34.58,2.89 -8.75,10.34 -7.45,25.83 2.89,34.58"
         style="fill:#ee5790;fill-opacity:1;fill-rule:evenodd;stroke:none"
         id="path154" /><path
         d="m 4032.59,3859.64 c 2.71,0.6 4.42,3.29 3.82,6 -0.61,2.7 -3.29,4.41 -6,3.81 -0.1,-0.02 -33.27,-6.59 -43.89,-35.93 -0.94,-2.61 0.41,-5.51 3.02,-6.45 2.61,-0.95 5.5,0.4 6.45,3.01 8.68,24.01 36.52,29.53 36.6,29.56"
         style="fill:#1a1732;fill-opacity:1;fill-rule:evenodd;stroke:none"
         id="path156" /><path
         d="m 4528.48,2777.71 c 0,0 -211.6,-78.95 -233.73,-89.63 -22.15,-10.68 -46.42,77.49 -48.48,91.85 -2.07,14.35 13.1,31.18 41.79,47.61 28.7,16.44 188.18,108.87 188.18,108.87 l 52.24,-158.7"
         style="fill:#ffffff;fill-opacity:1;fill-rule:evenodd;stroke:none"
         id="path158" /><path
         d="m 4561.69,2784.14 c -77.4,-29.07 -211.55,-79.74 -230.63,-88.94 -27.04,-13.04 -56.68,94.61 -59.2,112.15 -2.52,17.52 15.99,38.08 51.05,58.14 19.8,11.35 90.67,52.37 148.54,85.87 0,0 51.66,35.91 59.4,115.08 7.75,79.17 35,442.39 35,442.39 l 212.01,-94.29 37.61,-55.45 c 0,0 -79.49,-343.89 -110.68,-423.83 -31.17,-79.94 -74.49,-125.28 -143.1,-151.12"
         style="fill:#1a1732;fill-opacity:1;fill-rule:evenodd;stroke:none"
         id="path160" /><path
         d="m 5643.24,3263.13 c 0,0 150.69,-260.69 179.14,-651.11 0,0 2.46,-13.22 -12.63,-19.65 -15.09,-6.42 -141.28,-0.36 -289.57,-182.39 -148.29,-182.04 -385.27,-345.59 -521.15,-324.25 0,0 -14.69,0.09 -16.51,23.88 -1.82,23.79 -30.27,1091.88 -466.78,1477.87 0,0 -42.37,34.78 -40.82,93.94 1.55,59.17 683.87,301.26 1168.32,-418.29"
         style="fill:#2c61b0;fill-opacity:1;fill-rule:evenodd;stroke:none"
         id="path162" /><path
         d="m 5520.29,2996.28 -31.6,-105.83 c 0,0 -67.33,-3.27 -241.95,347.06 0,0 -69.49,134.97 -270.08,176.22 l 89.34,127.14 c 0,0 381.3,-67.34 379.32,-99.88 -1.98,-32.55 74.97,-444.71 74.97,-444.71"
         style="fill:#3c7dc8;fill-opacity:1;fill-rule:evenodd;stroke:none"
         id="path164" /><path
         d="m 4628.37,3274.96 125.85,84.51 c 12.65,8.49 31.45,6.1 41.79,-5.31 l 219.95,-243.06 c 10.33,-11.41 8.42,-27.71 -4.22,-36.21 l -125.85,-84.5 c -12.66,-8.51 -31.47,-6.11 -41.8,5.31 l -219.95,243.05 c -10.33,11.42 -8.44,27.71 4.23,36.21"
         style="fill:#1a1732;fill-opacity:1;fill-rule:evenodd;stroke:none"
         id="path166" /><path
         d="m 4610.1,3262.69 125.86,84.51 c 12.63,8.5 31.44,6.11 41.77,-5.32 l 219.96,-243.05 c 10.33,-11.41 8.42,-27.71 -4.21,-36.2 l -125.86,-84.51 c -12.66,-8.5 -31.48,-6.11 -41.81,5.31 l -219.94,243.05 c -10.33,11.42 -8.44,27.72 4.23,36.21"
         style="fill:#222453;fill-opacity:1;fill-rule:evenodd;stroke:none"
         id="path168" /><path
         d="m 4628.01,3232.95 20.26,13.61 c 2.03,1.36 5.06,0.98 6.73,-0.86 l 54.45,-60.14 c 1.66,-1.84 1.37,-4.46 -0.67,-5.83 l -20.26,-13.6 c -2.05,-1.37 -5.07,-0.99 -6.73,0.85 l -54.47,60.14 c -1.65,1.84 -1.35,4.47 0.69,5.83"
         style="fill:#6043a0;fill-opacity:1;fill-rule:evenodd;stroke:none"
         id="path170" /><path
         d="m 4645.07,3232.92 c 5.33,3.58 13.04,2.49 17.22,-2.42 4.19,-4.92 3.28,-11.8 -2.06,-15.38 -5.32,-3.57 -13.02,-2.49 -17.21,2.43 -4.2,4.92 -3.27,11.8 2.05,15.37"
         style="fill:#d7effb;fill-opacity:1;fill-rule:evenodd;stroke:none"
         id="path172" /><path
         d="m 4665.89,3209.59 c 5.32,3.58 13.04,2.5 17.23,-2.42 4.17,-4.91 3.26,-11.8 -2.08,-15.37 -5.31,-3.58 -13.02,-2.49 -17.21,2.42 -4.19,4.92 -3.27,11.8 2.06,15.37"
         style="fill:#d7effb;fill-opacity:1;fill-rule:evenodd;stroke:none"
         id="path174" /><path
         d="m 4669.17,3205.74 c 3.03,2.03 7.4,1.41 9.77,-1.37 2.37,-2.79 1.84,-6.69 -1.18,-8.72 -3,-2.03 -7.39,-1.41 -9.75,1.37 -2.38,2.79 -1.85,6.7 1.16,8.72"
         style="fill:#ffffff;fill-opacity:1;fill-rule:evenodd;stroke:none"
         id="path176" /><path
         d="m 4648.09,3229.38 c 3.2,2.15 7.85,1.5 10.37,-1.46 2.52,-2.96 1.96,-7.1 -1.24,-9.26 -3.21,-2.15 -7.84,-1.49 -10.36,1.47 -2.52,2.95 -1.98,7.1 1.23,9.25"
         style="fill:#ffffff;fill-opacity:1;fill-rule:evenodd;stroke:none"
         id="path178" /><path
         d="m 4685.76,3187.36 c 3.2,2.15 7.84,1.5 10.36,-1.46 2.52,-2.96 1.98,-7.1 -1.24,-9.25 -3.2,-2.15 -7.85,-1.49 -10.36,1.46 -2.52,2.95 -1.95,7.1 1.24,9.25"
         style="fill:#d7effb;fill-opacity:1;fill-rule:evenodd;stroke:none"
         id="path180" /><path
         d="m 4487.73,4058.77 c -2.54,-1.48 -54.82,-15.02 -63.63,-18.98 -8.81,-3.95 -11.58,-22.57 -13.51,-54.3 -1.94,-31.73 -27.72,-266.95 -28.95,-280.35 -1.22,-13.41 3.58,-21.46 15.19,-25.43 11.6,-3.97 145.45,-52.15 145.45,-52.15 l -54.55,431.21"
         style="fill:#1a1732;fill-opacity:1;fill-rule:evenodd;stroke:none"
         id="path182" /><path
         d="m 5212.15,3396.07 c 0,0 -202.25,-134.02 -225.51,-146.52 -23.28,-12.49 38.02,-89.28 49.19,-100.14 11.17,-10.86 35.38,-8.31 67.79,6.25 32.41,14.56 213.45,94.79 213.45,94.79 l -104.92,145.62"
         style="fill:#ffffff;fill-opacity:1;fill-rule:evenodd;stroke:none"
         id="path184" /><path
         d="m 5302.44,3474.49 c 0,0 -264.48,-175.29 -294.92,-191.63 -30.43,-16.34 49.73,-116.76 64.34,-130.97 14.6,-14.19 46.26,-10.86 88.64,8.18 42.39,19.05 279.18,123.97 279.18,123.97 l -137.24,190.45"
         style="fill:#222453;fill-opacity:1;fill-rule:evenodd;stroke:none"
         id="path186" /><path
         d="m 4741.29,3450.07 c 0,0 124.81,-30.07 272.88,-39.1 148.06,-9.03 455.48,-29.41 474.52,-520.52 0,0 2.31,-2.58 10.23,0.2 7.93,2.78 222.01,192.65 252.07,283.9 30.06,91.26 -143.81,426.85 -239.15,470.23 -95.37,43.37 -272.85,78.69 -466.75,273.43 -193.9,194.74 -460.69,171.4 -460.69,171.4 l -58.03,-214.9 c 0,0 26.49,-369.07 214.92,-424.64"
         style="fill:#518ed2;fill-opacity:1;fill-rule:evenodd;stroke:none"
         id="path188" /><path
         d="m 5527.69,3635.4 c -5.48,3.88 -10.79,7.07 -15.85,9.38 -95.37,43.37 -272.85,78.69 -466.75,273.43 -4.02,4.03 -8.08,7.94 -12.15,11.79 1.44,-3.25 125.19,-283.58 -184.05,-345.74 0,0 -20.03,-4.01 -14.43,-20.85 5.61,-16.82 568.53,151.4 693.23,71.99 z m -92.97,-474.06 c 29.7,-68.9 49.57,-157.28 53.97,-270.89 0,0 2.31,-2.58 10.23,0.2 7.93,2.78 222.01,192.65 252.07,283.9 12.04,36.53 -8.63,112.24 -43.84,192.66 -0.14,-58.83 -7.87,-124 -37.28,-156.46 -41.25,-45.55 -161.51,-50.79 -235.15,-49.41 v 0"
         style="fill:#4886ce;fill-opacity:1;fill-rule:evenodd;stroke:none"
         id="path190" /><path
         d="m 4595.53,4090.21 c -7.2,-0.26 -11.13,-0.6 -11.13,-0.6 l -35.44,-131.26 51.44,-358.86 45.17,-18.6 c 0,0 -7.49,50.26 -3.49,53.87 4.01,3.61 98.6,50.1 110.63,56.52 12.04,6.41 9.63,18.03 9.63,18.03 -9.26,19.25 -138.35,315.54 -166.81,380.9"
         style="fill:#3c7dc8;fill-opacity:1;fill-rule:evenodd;stroke:none"
         id="path192" /><path
         d="m 4489.43,4100.31 c 0,0 -12.14,-4.98 -15.86,-19.04 -3.71,-14.06 1.64,-307.95 2.9,-340.68 1.26,-32.75 133.16,-200.02 165.9,-238.76 32.76,-38.74 81.17,-48.23 98.92,-51.76 0,0 1.54,0.11 1.74,1.63 0.18,1.52 -51.4,22.83 -67.09,46.65 -15.7,23.82 -42.94,125.92 -46.13,140.81 0,0 90.66,43.67 106.29,52.52 15.66,8.85 18.13,16.04 12.21,26.2 -5.91,10.16 -153.27,358.83 -163.91,371.73 -10.64,12.9 -49.23,16.07 -94.97,10.7"
         style="fill:#d7effb;fill-opacity:1;fill-rule:evenodd;stroke:none"
         id="path194" /><path
         d="m 4063.75,4360.75 c 2.04,-1.43 2.54,-4.27 1.1,-6.32 -1.44,-2.05 -4.27,-2.54 -6.32,-1.1 -0.14,0.1 -49.78,35.78 -129.64,20.9 -2.46,-0.46 -4.83,1.18 -5.28,3.64 -0.45,2.46 1.18,4.82 3.65,5.27 83.65,15.58 136.33,-22.28 136.49,-22.39"
         style="fill:#1e1c42;fill-opacity:1;fill-rule:evenodd;stroke:none"
         id="path196" /><path
         d="m 3873.41,3961.82 c 2.24,1.1 4.98,0.19 6.07,-2.06 1.12,-2.24 0.2,-4.96 -2.05,-6.07 -0.25,-0.12 -85.14,-43.6 -138.53,55.7 -1.19,2.21 -0.36,4.95 1.84,6.15 2.21,1.18 4.96,0.35 6.15,-1.86 49.2,-91.48 126.3,-51.97 126.52,-51.86"
         style="fill:#1e1c42;fill-opacity:1;fill-rule:evenodd;stroke:none"
         id="path198" /><path
         d="m 4981.81,3243.02 c -13.37,4.77 -41.21,19.91 -48.58,23.6 -8.3,4.14 -77.71,19.69 -77.71,19.69 l 37.3,-41.45 c 0,0 -113.99,-49.74 -138.86,-69.43 -24.87,-19.68 -9.31,-29 12.45,-29 21.75,0 21.75,0 21.75,0 0,0 -4.15,-37.31 23.84,-38.34 27.96,-1.04 30.03,0 30.03,0 0,0 10.37,-31.09 33.18,-27.98 22.78,3.11 62.17,12.43 107.75,38.34 36.86,20.94 46.63,31.72 49.01,35.08 -15,16.94 -54.85,69.13 -50.16,89.49"
         style="fill:#f4adcb;fill-opacity:1;fill-rule:evenodd;stroke:none"
         id="path200" /><path
         d="m 4981.81,3243.02 c -3.79,1.34 -8.7,3.52 -14,6.02 -2.37,-41.06 29.46,-73.69 -21.21,-100.77 -55.78,-29.82 -92.34,-22.13 -155.83,38.48 -2.95,2.01 -5.8,3.89 -8.62,5.73 -12.37,-6.61 -22.56,-12.6 -28.19,-17.05 -24.87,-19.68 -9.31,-29 12.45,-29 21.75,0 21.75,0 21.75,0 0,0 -4.15,-37.31 23.84,-38.34 27.96,-1.04 30.03,0 30.03,0 0,0 10.37,-31.09 33.18,-27.98 22.78,3.11 62.17,12.43 107.75,38.34 36.86,20.94 46.63,31.72 49.01,35.08 -15,16.94 -54.85,69.13 -50.16,89.49"
         style="fill:#ec73b3;fill-opacity:1;fill-rule:evenodd;stroke:none"
         id="path202" /><path
         d="M 3325.06,3098.44 H 1884.97 c -71.75,0 -130.45,-49.08 -130.45,-109.07 V 848.82 h 1700.99 v 2140.55 c 0,59.99 -58.7,109.07 -130.45,109.07"
         style="fill:#4a87ce;fill-opacity:1;fill-rule:evenodd;stroke:none"
         id="path204" /><path
         d="M 3561.5,3098.44 H 2355.06 c -60.11,0 -109.29,-41.12 -109.29,-91.37 V 848.82 H 3670.8 v 2158.25 c 0,50.25 -49.18,91.37 -109.3,91.37"
         style="fill:#8abee9;fill-opacity:1;fill-rule:evenodd;stroke:none"
         id="path206" /><path
         d="M 3561.5,3042.15 H 2355.06 c -13.17,0 -23.95,-9.02 -23.95,-20.03 V 848.82 h 1254.35 v 2173.3 c 0,11.02 -10.78,20.03 -23.96,20.03"
         style="fill:#ffffff;fill-opacity:1;fill-rule:evenodd;stroke:none"
         id="path208" /><path
         d="m 2793.82,3042.16 h 328.93 c 15.35,0 27.9,-10.49 27.9,-23.33 v -0.03 c 0,-12.83 -12.55,-23.32 -27.9,-23.32 h -328.93 c -15.35,0 -27.9,10.49 -27.9,23.32 v 0.03 c 0,12.84 12.55,23.33 27.9,23.33"
         style="fill:#222453;fill-opacity:1;fill-rule:evenodd;stroke:none"
         id="path210" /><path
         d="M 2355.06,3042.15 H 3561.5 c 13.18,0 23.96,-9.01 23.96,-20.03 v -3.3 H 2331.11 v 3.3 c 0,11.02 10.78,20.03 23.95,20.03"
         style="fill:#222453;fill-opacity:1;fill-rule:evenodd;stroke:none"
         id="path212" /><path
         d="m 2793.82,1380.53 h 328.93 c 15.35,0 27.9,-10.5 27.9,-23.33 v -0.02 c 0,-12.83 -12.55,-23.33 -27.9,-23.33 h -328.93 c -15.35,0 -27.9,10.5 -27.9,23.33 v 0.02 c 0,12.83 12.55,23.33 27.9,23.33"
         style="fill:#222453;fill-opacity:1;fill-rule:evenodd;stroke:none"
         id="path214" /><path
         d="M 2355.06,1380.53 H 3561.5 c 13.18,0 23.96,-9.02 23.96,-20.02 v -3.32 H 2331.11 v 3.32 c 0,11 10.78,20.02 23.95,20.02"
         style="fill:#222453;fill-opacity:1;fill-rule:evenodd;stroke:none"
         id="path216" /><path
         d="m 2617.05,2691.23 h -285.94 v -449.31 h 285.94 v 449.31"
         style="fill:#f6ae1c;fill-opacity:1;fill-rule:evenodd;stroke:none"
         id="path218" /><path
         d="m 2617.05,2624.73 h -285.94 v -382.81 h 285.94 v 382.81"
         style="fill:#f49428;fill-opacity:1;fill-rule:evenodd;stroke:none"
         id="path220" /><path
         d="m 2331.11,2584.22 h 285.94 v -342.3 h -285.94 v 342.3"
         style="fill:#ffffff;fill-opacity:1;fill-rule:evenodd;stroke:none"
         id="path222" /><path
         d="m 2331.11,2584.22 h 285.94 v -342.3 h -285.94 v 342.3"
         style="fill:#fef4ca;fill-opacity:1;fill-rule:evenodd;stroke:none"
         id="path224" /><path
         d="m 2617.05,2613.08 h -211.61 c -31.26,0 -63.19,-23.76 -74.33,-54.11 v -317.05 h 285.94 v 371.16"
         style="fill:#f9c330;fill-opacity:1;fill-rule:evenodd;stroke:none"
         id="path226" /><path
         d="m 2617.05,2691.23 h -195.58 v -397.2 h 195.58 v 397.2"
         style="fill:#f17e2d;fill-opacity:1;fill-rule:evenodd;stroke:none"
         id="path228" /><path
         d="m 2617.05,2624.73 h -195.58 v -330.7 h 195.58 v 330.7"
         style="fill:#ee6b31;fill-opacity:1;fill-rule:evenodd;stroke:none"
         id="path230" /><path
         d="m 2421.47,2584.22 h 195.58 v -290.19 h -195.58 v 290.19"
         style="fill:#f3afc1;fill-opacity:1;fill-rule:evenodd;stroke:none"
         id="path232" /><path
         d="m 2421.47,2584.22 h 195.58 v -290.19 h -195.58 v 290.19"
         style="fill:#f3a49d;fill-opacity:1;fill-rule:evenodd;stroke:none"
         id="path234" /><path
         d="m 2617.05,2613.08 h -195.58 v -319.05 h 195.58 v 319.05"
         style="fill:#f38d3a;fill-opacity:1;fill-rule:evenodd;stroke:none"
         id="path236" /><path
         d="m 2993.8,2691.23 h -437.03 c -33.64,0 -61.16,-27.52 -61.16,-61.16 v -388.15 h 498.19 v 449.31"
         style="fill:#f6ae1c;fill-opacity:1;fill-rule:evenodd;stroke:none"
         id="path238" /><path
         d="m 2993.8,2624.73 h -403.06 c -33.63,0 -61.16,-27.52 -61.16,-61.17 v -321.64 h 464.22 v 382.81"
         style="fill:#f49428;fill-opacity:1;fill-rule:evenodd;stroke:none"
         id="path240" /><path
         d="m 2555.63,2241.92 v 292.46 c 0,27.41 22.43,49.84 49.83,49.84 h 388.34 v -342.3 h -438.17"
         style="fill:#ffffff;fill-opacity:1;fill-rule:evenodd;stroke:none"
         id="path242" /><path
         d="m 2586.04,2241.92 77.79,310 c 2.98,11.84 9.17,22.91 17.4,32.3 h 312.57 v -342.3 h -407.76"
         style="fill:#fef4ca;fill-opacity:1;fill-rule:evenodd;stroke:none"
         id="path244" /><path
         d="m 2993.8,2613.08 h -211.61 c -33.64,0 -68.07,-27.52 -76.51,-61.16 l -77.8,-310 h 365.92 v 371.16"
         style="fill:#f9c330;fill-opacity:1;fill-rule:evenodd;stroke:none"
         id="path246" /><path
         d="m 2993.8,2691.23 h -195.58 v -397.2 h 195.58 v 397.2"
         style="fill:#f17e2d;fill-opacity:1;fill-rule:evenodd;stroke:none"
         id="path248" /><path
         d="m 2993.8,2624.73 h -195.58 v -330.7 h 195.58 v 330.7"
         style="fill:#ee6b31;fill-opacity:1;fill-rule:evenodd;stroke:none"
         id="path250" /><path
         d="m 2798.22,2584.22 h 195.58 v -290.19 h -195.58 v 290.19"
         style="fill:#f3afc1;fill-opacity:1;fill-rule:evenodd;stroke:none"
         id="path252" /><path
         d="m 2798.22,2584.22 h 195.58 v -290.19 h -195.58 v 290.19"
         style="fill:#f3a49d;fill-opacity:1;fill-rule:evenodd;stroke:none"
         id="path254" /><path
         d="m 2993.8,2613.08 h -195.58 v -319.05 h 195.58 v 319.05"
         style="fill:#f38d3a;fill-opacity:1;fill-rule:evenodd;stroke:none"
         id="path256" /><path
         d="m 3370.55,2691.23 h -437.03 c -33.65,0 -61.17,-27.52 -61.17,-61.16 v -388.15 h 498.2 v 449.31"
         style="fill:#f6ae1c;fill-opacity:1;fill-rule:evenodd;stroke:none"
         id="path258" /><path
         d="M 3370.55,2624.73 H 2967.5 c -33.64,0 -61.17,-27.52 -61.17,-61.17 v -321.64 h 464.22 v 382.81"
         style="fill:#f49428;fill-opacity:1;fill-rule:evenodd;stroke:none"
         id="path260" /><path
         d="m 2932.38,2241.92 v 292.46 c 0,27.41 22.42,49.84 49.84,49.84 h 388.33 v -342.3 h -438.17"
         style="fill:#ffffff;fill-opacity:1;fill-rule:evenodd;stroke:none"
         id="path262" /><path
         d="m 2962.78,2241.92 77.81,310 c 2.96,11.84 9.15,22.91 17.38,32.3 h 312.58 v -342.3 h -407.77"
         style="fill:#fef4ca;fill-opacity:1;fill-rule:evenodd;stroke:none"
         id="path264" /><path
         d="m 3370.55,2613.08 h -211.61 c -33.64,0 -68.07,-27.52 -76.51,-61.16 l -77.81,-310 h 365.93 v 371.16"
         style="fill:#f9c330;fill-opacity:1;fill-rule:evenodd;stroke:none"
         id="path266" /><path
         d="m 3370.55,2691.23 h -195.58 v -397.2 h 195.58 v 397.2"
         style="fill:#f17e2d;fill-opacity:1;fill-rule:evenodd;stroke:none"
         id="path268" /><path
         d="m 3370.55,2624.73 h -195.58 v -330.7 h 195.58 v 330.7"
         style="fill:#ee6b31;fill-opacity:1;fill-rule:evenodd;stroke:none"
         id="path270" /><path
         d="m 3174.97,2584.22 h 195.58 v -290.19 h -195.58 v 290.19"
         style="fill:#f3afc1;fill-opacity:1;fill-rule:evenodd;stroke:none"
         id="path272" /><path
         d="m 3174.97,2584.22 h 195.58 v -290.19 h -195.58 v 290.19"
         style="fill:#f3a49d;fill-opacity:1;fill-rule:evenodd;stroke:none"
         id="path274" /><path
         d="m 3370.55,2613.08 h -195.58 v -319.05 h 195.58 v 319.05"
         style="fill:#f38d3a;fill-opacity:1;fill-rule:evenodd;stroke:none"
         id="path276" /><path
         d="m 3299.07,2008.25 h 738.51 c 33.63,0 61.15,27.53 61.15,61.16 v 560.66 c 0,33.65 -27.52,61.16 -61.15,61.16 h -30.03 v 28.48 c 0,9.26 -7.58,16.84 -16.84,16.84 h -223.12 c -9.25,0 -16.82,-7.58 -16.82,-16.84 v -28.48 h -451.7 c -33.64,0 -61.16,-27.52 -61.16,-61.16 v -560.66 c 0,-33.63 27.52,-61.16 61.16,-61.16"
         style="fill:#f6ae1c;fill-opacity:1;fill-rule:evenodd;stroke:none"
         id="path278" /><path
         d="m 3299.07,2008.25 h 738.51 c 33.63,0 61.15,27.53 61.15,61.16 v 548.91 c -8.2,4.1 -17.43,6.41 -27.18,6.41 h -30.03 v 28.47 c 0,9.27 -7.56,16.83 -16.82,16.83 h -223.12 c -9.26,0 -16.83,-7.56 -16.83,-16.83 v -28.47 h -451.7 c -33.64,0 -61.16,-27.52 -61.16,-61.17 v -548.9 c 8.2,-4.1 17.44,-6.41 27.18,-6.41"
         style="fill:#f49428;fill-opacity:1;fill-rule:evenodd;stroke:none"
         id="path280" /><path
         d="m 3814.43,2008.25 h -466.65 c -27.41,0 -49.84,22.42 -49.84,49.84 v 476.29 c 0,27.41 22.43,49.84 49.84,49.84 h 466.65 c 27.41,0 49.85,-22.43 49.85,-49.84 v -476.29 c 0,-27.42 -22.44,-49.84 -49.85,-49.84"
         style="fill:#ffffff;fill-opacity:1;fill-rule:evenodd;stroke:none"
         id="path282" /><path
         d="m 3814.43,2008.25 h -466.65 c -27.41,0 -49.84,22.42 -49.84,49.84 v 62.7 l 108.2,431.13 c 2.97,11.84 9.16,22.91 17.4,32.3 h 390.89 c 27.41,0 49.85,-22.43 49.85,-49.84 v -476.29 c 0,-27.42 -22.44,-49.84 -49.85,-49.84"
         style="fill:#fef4ca;fill-opacity:1;fill-rule:evenodd;stroke:none"
         id="path284" /><path
         d="m 3372.7,2008.25 h 681.86 c 33.64,0 68.08,27.53 76.51,61.16 l 121.11,482.51 c 8.44,33.64 -12.18,61.16 -45.83,61.16 h -35.83 l 7.61,30.3 c 3.07,12.28 -4.45,22.33 -16.73,22.33 h -248.88 c -12.28,0 -24.84,-10.05 -27.94,-22.33 l -7.59,-30.3 H 3524.5 c -33.65,0 -68.07,-27.52 -76.52,-61.16 l -121.1,-482.51 c -8.44,-33.63 12.18,-61.16 45.82,-61.16"
         style="fill:#f9c330;fill-opacity:1;fill-rule:evenodd;stroke:none"
         id="path286" /><path
         d="m 4098.73,2525.27 -96.78,-385.63 c -8.45,-33.64 -42.88,-61.17 -76.52,-61.17 h -61.15 -535.12 l -2.28,-9.06 c -8.44,-33.63 12.18,-61.16 45.82,-61.16 h 441.73 223.15 16.98 c 33.64,0 68.08,27.53 76.51,61.16 l 121.1,482.51 c 8.45,33.64 -12.17,61.16 -45.82,61.16 h -35.83 l 7.61,30.3 c 3.07,12.28 -4.45,22.33 -16.73,22.33 h -45.76 c 8.51,-11.12 11.67,-26.56 7.42,-43.56 l -24.33,-96.88"
         style="fill:#f6ae1c;fill-opacity:1;fill-rule:evenodd;stroke:none"
         id="path288" /><path
         d="m 3171.89,1934.4 h 1254.34 v 530.55 H 3171.89 V 1934.4"
         style="fill:#ffffff;fill-opacity:1;fill-rule:evenodd;stroke:none"
         id="path290" /><path
         d="m 2793.82,1934.41 h 328.93 c 15.35,0 27.9,-10.49 27.9,-23.33 v -0.03 c 0,-12.84 -12.55,-23.32 -27.9,-23.32 h -328.93 c -15.35,0 -27.9,10.48 -27.9,23.32 v 0.03 c 0,12.84 12.55,23.33 27.9,23.33"
         style="fill:#222453;fill-opacity:1;fill-rule:evenodd;stroke:none"
         id="path292" /><path
         d="M 2355.06,1934.4 H 3561.5 c 13.18,0 23.96,-9.01 23.96,-20.03 v -3.32 H 2331.11 v 3.32 c 0,11.02 10.78,20.03 23.95,20.03"
         style="fill:#222453;fill-opacity:1;fill-rule:evenodd;stroke:none"
         id="path294" /><path
         d="m 3195.84,2488.28 h 1206.45 c 13.17,0 23.94,-9.01 23.94,-20.02 v -3.31 h -434.79 v -0.01 c 0,-12.83 -12.56,-23.34 -27.91,-23.34 H 3634.6 c -15.34,0 -27.89,10.51 -27.89,23.34 v 0.01 h -434.82 v 3.31 c 0,11.01 10.79,20.02 23.95,20.02"
         style="fill:#222453;fill-opacity:1;fill-rule:evenodd;stroke:none"
         id="path296" /><path
         d="m 3171.89,1934.4 v 530.55 h -840.78 v -550.58 c 0,11.02 10.78,20.03 23.95,20.03 h 438.27 c 0.16,0.01 0.33,0.01 0.49,0.01 h 328.93 c 0.17,0 0.33,0 0.5,-0.01 h 48.64"
         style="fill:#d7effb;fill-opacity:1;fill-rule:evenodd;stroke:none"
         id="path298" /><path
         d="m 1785.62,2516.95 c -143.62,159.15 -250.46,-43 -235.55,-245.94 14.15,-192.41 166.54,-852.55 138.28,-1130.28 h 58.35 c 142.74,356.14 222.78,1172.48 38.92,1376.22"
         style="fill:#e93055;fill-opacity:1;fill-rule:evenodd;stroke:none"
         id="path300" /><path
         d="m 1725.25,1140.73 c 138.93,561.32 -36.94,1337.24 -37.54,1339.88 -1.07,4.82 -5.53,7.78 -9.96,6.62 -4.43,-1.19 -7.14,-6.04 -6.08,-10.84 0.6,-2.66 176.69,-779.45 36.7,-1335.66 h 16.88"
         style="fill:#da2447;fill-opacity:1;fill-rule:evenodd;stroke:none"
         id="path302" /><path
         d="m 1431.31,2166.22 c -151.35,87.27 -189.51,-103.14 -130.51,-260.67 48.9,-130.55 264.91,-516.71 346.58,-764.82 h 76.93 c 6.54,342.87 -114.35,922.48 -293,1025.49"
         style="fill:#8abee9;fill-opacity:1;fill-rule:evenodd;stroke:none"
         id="path304" /><path
         d="m 1696.21,1140.73 c -50.06,463.72 -333.43,967.8 -334.45,969.61 -1.97,3.55 -6.22,4.68 -9.47,2.53 -3.25,-2.15 -4.29,-6.77 -2.31,-10.31 1.01,-1.82 282.55,-502.61 332.55,-961.83 h 13.68"
         style="fill:#518ed2;fill-opacity:1;fill-rule:evenodd;stroke:none"
         id="path306" /><path
         d="m 2070.95,1946.13 c 146.69,69.73 169.94,-110.63 104.77,-252.92 -44.08,-96.28 -202.99,-342.79 -309.99,-552.48 h -122.14 c 41.77,317.24 175.75,733.3 327.36,805.4"
         style="fill:#f9c330;fill-opacity:1;fill-rule:evenodd;stroke:none"
         id="path308" /><path
         d="m 1787.21,1140.73 c 104.14,384.35 343.98,746.55 344.94,748 2.07,3.15 6.1,3.88 8.99,1.62 2.89,-2.24 3.56,-6.62 1.5,-9.77 -0.96,-1.46 -238.26,-359.89 -342.17,-739.85 h -13.26"
         style="fill:#f6ae1c;fill-opacity:1;fill-rule:evenodd;stroke:none"
         id="path310" /><path
         d="m 1555.65,1267.63 h 429.77 c 12.86,0 23.36,-11.44 23.36,-25.44 v -115.48 c 0,-14 -10.5,-25.44 -23.36,-25.44 h -429.77 c -12.86,0 -23.37,11.44 -23.37,25.44 v 115.48 c 0,14 10.51,25.44 23.37,25.44"
         style="fill:#2a2c6a;fill-opacity:1;fill-rule:evenodd;stroke:none"
         id="path312" /><path
         d="m 1629.37,1173.68 h 282.33 l 73.72,-72.4 -60.22,-252.46 h -154.66 -154.67 l -60.22,252.46 73.72,72.4"
         style="fill:#2a2c6a;fill-opacity:1;fill-rule:evenodd;stroke:none"
         id="path314" /><path
         d="m 1985.42,1101.28 -12.38,-51.91 h -405 l -12.39,51.91 h 429.77"
         style="fill:#222453;fill-opacity:1;fill-rule:evenodd;stroke:none"
         id="path316" /><path
         d="m 4246.16,2784.27 c -7.68,-5.65 -11.84,-9.38 -11.84,-9.38 0,0 -67.37,6.13 -87.79,-17.35 -20.4,-23.48 -65.31,-80.63 -84.69,-89.81 -19.4,-9.19 2.03,-25.53 42.85,-11.24 40.84,14.3 86.76,49 86.76,49 0,0 42.38,-10.13 75.5,9.87 -11.1,24.19 -19.51,56.38 -20.68,64.57 -0.21,1.42 -0.24,2.87 -0.11,4.34"
         style="fill:#f4adcb;fill-opacity:1;fill-rule:evenodd;stroke:none"
         id="path318" /><path
         d="m 3752.38,161.359 -23.58,58.012 h -11.87 l 29.59,-71.492 -4.68,-10.688 c -2.49,-5.859 -5.72,-7.472 -10.55,-7.472 -1.76,0 -4.4,0.441 -6.01,1.172 l -1.75,-9.95 c 2.05,-0.601 5.71,-1.043 8.05,-1.043 9.38,0.153 16.55,4.114 20.8,14.364 l 35.45,85.109 h -12.01 z m -50.53,22.563 c 0,15.668 -8.5,27.387 -22.86,27.387 -8.64,0 -17.28,-5.27 -21.09,-11.43 v -32.078 c 3.81,-6.153 12.45,-11.129 21.09,-11.129 14.36,0 22.86,11.57 22.86,27.25 z m 11.42,0 c 0,-23 -13.04,-37.063 -31.49,-37.063 -9.96,0 -18.61,5.121 -23.88,12.301 v -10.551 h -10.99 v 97.711 h 10.99 v -37.648 c 5.71,7.769 14.21,12.449 23.88,12.449 18.45,0 31.49,-14.652 31.49,-37.199 z m -129.77,15.957 c -3.96,6.16 -12.46,11.43 -21.24,11.43 -14.21,0 -22.71,-11.719 -22.71,-27.387 0,-15.68 8.5,-27.25 22.71,-27.25 8.78,0 17.28,4.976 21.24,11.129 z m 0,46.441 h 10.98 v -97.711 h -10.98 v 10.551 c -5.28,-7.18 -13.92,-12.301 -23.88,-12.301 -18.46,0 -31.49,14.063 -31.49,37.063 0,22.547 12.89,37.199 31.49,37.199 9.52,0 18.16,-4.68 23.88,-12.449 z m -76.18,-57.859 c -0.14,10.539 -7.17,23.578 -23.29,23.578 -15.08,0 -22.56,-12.738 -23.13,-23.578 z m 10.84,-5.281 v -2.782 h -57.26 c 0.88,-13.328 10.24,-24.457 25.48,-24.457 8.05,0 16.26,3.219 21.82,8.93 l 5.28,-7.172 c -7.03,-7.039 -16.56,-10.84 -28.13,-10.84 -20.94,0 -36.03,15.082 -36.03,37.2 0,20.511 14.64,37.062 34.86,37.062 21.39,0 33.98,-16.699 33.98,-37.941 z m -105.6,37.941 c -10.55,0 -20.22,-6.152 -25.2,-12.012 v 10.262 h -10.98 v -70.762 h 10.98 v 51.711 c 4.1,5.719 12.31,10.989 20.95,10.989 9.52,0 15.82,-3.957 15.82,-16.411 v -46.289 h 10.99 v 49.661 c 0,15.378 -7.77,22.851 -22.56,22.851 z m -65.48,-21.242 c -3.81,6.16 -12.3,11.43 -21.09,11.43 -14.21,0 -22.7,-11.278 -22.7,-26.95 0,-15.527 8.49,-26.961 22.7,-26.961 8.79,0 17.28,5.422 21.09,11.571 z m 0,19.492 h 10.99 V 150.66 c 0,-23.43 -16.41,-30.762 -33.69,-30.762 -12.02,0 -20.22,2.364 -28.56,10.551 l 5.56,8.199 c 5.86,-7.027 12.89,-9.668 23,-9.668 11.71,0 22.7,5.719 22.7,21.239 v 10.113 c -5.13,-7.184 -13.77,-12.602 -23.73,-12.602 -18.46,0 -31.49,13.77 -31.49,36.629 0,22.7 12.89,36.762 31.49,36.762 9.52,0 18.02,-4.68 23.73,-12.449 z m -80.41,-70.762 h 10.99 v 70.762 h -10.99 z m 5.42,95.661 c -3.96,0 -7.32,-3.372 -7.32,-7.469 0,-4.102 3.36,-7.332 7.32,-7.332 4.1,0 7.47,3.23 7.47,7.332 0,4.097 -3.37,7.469 -7.47,7.469 z m -63.43,-43.219 c 0,6.301 6.01,11.14 15.68,11.14 9.08,0 16.84,-3.812 21.09,-8.941 l 5.13,7.621 c -5.72,5.711 -14.21,10.25 -26.22,10.25 -16.85,0 -26.37,-9.371 -26.37,-20.359 0,-26.223 43.8,-15.672 43.8,-32.813 0,-7.027 -5.86,-12.16 -16.7,-12.16 -9.67,0 -18.61,4.691 -23.29,10.109 l -5.72,-7.906 c 7.18,-7.621 17,-11.133 28.57,-11.133 18.31,0 27.83,9.52 27.83,21.383 0,27.539 -43.8,17.289 -43.8,32.809 z m -31.34,-12.59 c -0.14,10.539 -7.17,23.578 -23.29,23.578 -15.08,0 -22.56,-12.738 -23.14,-23.578 z m 10.83,-5.281 v -2.782 h -57.26 c 0.88,-13.328 10.25,-24.457 25.49,-24.457 8.05,0 16.26,3.219 21.81,8.93 l 5.28,-7.172 c -7.03,-7.039 -16.55,-10.84 -28.12,-10.84 -20.95,0 -36.03,15.082 -36.03,37.2 0,20.511 14.64,37.062 34.86,37.062 21.39,0 33.97,-16.699 33.97,-37.941 z m -94.03,16.699 c -3.95,6.16 -12.45,11.43 -21.24,11.43 -14.21,0 -22.7,-11.719 -22.7,-27.387 0,-15.68 8.49,-27.25 22.7,-27.25 8.79,0 17.29,4.976 21.24,11.129 z m 0,46.441 h 10.99 v -97.711 h -10.99 v 10.551 c -5.27,-7.18 -13.91,-12.301 -23.88,-12.301 -18.45,0 -31.49,14.063 -31.49,37.063 0,22.547 12.89,37.199 31.49,37.199 9.53,0 18.17,-4.68 23.88,-12.449 z m 1332.11,-60.379 34.79,33.75 h -23.68 l -27.03,-25.543 v 60.403 H 4391 V 147.969 h 19.31 v 29.011 l 27.17,-29.011 h 23.77 z m -67.46,-37.972 h 19.32 v 71.722 h -19.32 z m 9.55,107.621 c -6.97,0 -12.28,-5.481 -12.28,-12.442 0,-6.957 5.31,-12.289 12.28,-12.289 6.95,0 12.36,5.332 12.36,12.289 0,6.961 -5.41,12.442 -12.36,12.442 z m -38.52,-71.719 c 0,10.938 -7.1,19.75 -18.49,19.75 -10.96,0 -18.44,-8.43 -18.44,-19.75 0,-11.332 7.48,-19.769 18.44,-19.769 11.39,0 18.49,8.808 18.49,19.769 z m 19.85,0 c 0,-21.551 -14.96,-37.762 -34.73,-37.762 -9.61,0 -16.42,3.782 -21.09,9.332 v -37.082 h -19.24 v 101.332 h 18.87 v -7.921 c 4.67,5.851 11.54,9.839 21.38,9.839 19.85,0 34.81,-16.211 34.81,-37.738 z m -102.85,6.731 c -1.78,9.179 -7.35,14.359 -15.63,14.359 -9.1,0 -14.43,-5.481 -16.13,-14.359 z m 19.39,-6.661 c 0,-2.222 -0.15,-4.89 -0.37,-6.519 h -50.86 c 2.07,-10.363 9.34,-14.871 18.44,-14.871 6.21,0 12.95,2.519 18.12,6.879 L 4262.85,157 c -8.14,-7.48 -18.49,-10.891 -30.56,-10.891 -22,0 -37.23,14.961 -37.23,37.532 0,22.578 14.8,37.968 36.27,37.968 20.64,0 34.78,-15.32 34.86,-37.668 z m -95.94,6.661 c -1.77,9.179 -7.32,14.359 -15.6,14.359 -9.1,0 -14.44,-5.481 -16.13,-14.359 z m 19.4,-6.661 c 0,-2.222 -0.16,-4.89 -0.37,-6.519 h -50.84 c 2.07,-10.363 9.31,-14.871 18.42,-14.871 6.23,0 12.94,2.519 18.14,6.879 L 4186.33,157 c -8.15,-7.48 -18.52,-10.891 -30.57,-10.891 -21.99,0 -37.24,14.961 -37.24,37.532 0,22.578 14.8,37.968 36.27,37.968 20.64,0 34.78,-15.32 34.86,-37.668 z m -77.42,37.668 c -8.81,0 -15.69,-3.039 -20.2,-9.757 v 7.839 h -18.73 v -71.722 h 19.32 v 39.082 c 0,10.66 6.15,16.129 15.09,16.129 1.68,0 3.5,-0.16 5.26,-0.461 l 10.21,15.523 c -2.48,2.09 -6.81,3.367 -10.95,3.367 z m -68.54,6.743 c 0,6.66 2.93,9.367 8.44,10.07 5.76,0.707 10.88,-1.223 13.83,-2.383 v 17.281 c -4.34,1.871 -9.48,3.082 -15.9,3.082 -16.74,0 -25.68,-11.031 -25.68,-27.832 v -8.879 h -13.4 V 202.52 h 13.4 v -54.551 h 19.31 v 54.551 h 22.29 v 17.171 h -22.29 z m -98.4,-16.102 c 0,7.5 -6.09,13.602 -13.59,13.602 -7.5,0 -13.61,-6.102 -13.61,-13.602 0,-7.5 6.11,-13.609 13.61,-13.609 7.5,0 13.59,6.109 13.59,13.609 z m -42.48,-4.191 c 0,10.203 -8.3,18.5 -18.49,18.5 -10.2,0 -18.5,-8.297 -18.5,-18.5 0,-10.2 8.3,-18.5 18.5,-18.5 10.19,0 18.49,8.3 18.49,18.5 z m 63.42,-5.309 c 0.25,-1.91 0.41,-3.859 0.45,-5.809 -13.75,-12.011 -37.91,-19.851 -66.72,-21.589 -26.41,-1.59 -46.74,2.48 -53.48,7.32 -0.89,4.117 -1.36,8.359 -1.36,12.598 0,32.781 27.28,59.441 60.8,59.441 30.58,0 56.52,-22.34 60.31,-51.961 z m -65.78,-34.961 c -3.87,-0.23 -7.75,-0.348 -11.58,-0.348 -8.79,0 -17.33,0.61 -24.79,1.801 -3.9,0.61 -8.45,1.539 -12.69,2.918 10.47,-18.621 30.68,-31.25 53.88,-31.25 28.56,0 52.62,19.16 59.5,45.031 -6.82,-4.492 -15.06,-8.25 -24.59,-11.222 -11.8,-3.68 -25.55,-6.078 -39.73,-6.93 z m 70.02,88.59 c -3.09,-0.379 -5.35,-3.039 -5.29,-6.09 l -4.16,-3.629 c -4.18,4.301 -8.91,8.129 -14.09,11.399 l -4.04,-6.418 c 11.35,-7.149 20.22,-17.27 25.65,-29.25 l 6.89,3.129 c -2.5,5.531 -5.66,10.71 -9.41,15.449 l 4.02,3.5 c 0.6,-0.11 1.25,-0.149 1.89,-0.071 3.32,0.403 5.67,3.411 5.26,6.723 -0.39,3.309 -3.4,5.668 -6.72,5.258 z m -94.51,-0.82 c 9.35,4.472 19.41,6.73 29.96,6.73 4.96,0 9.92,-0.519 14.74,-1.578 l 1.61,7.41 c -5.36,1.168 -10.84,1.75 -16.35,1.75 -1.72,0 -3.42,-0.062 -5.1,-0.16 l -0.74,6.258 c 1.87,1.492 2.97,3.883 2.65,6.441 -0.44,3.93 -4.02,6.738 -7.94,6.281 -3.93,-0.461 -6.74,-4.019 -6.27,-7.961 0.29,-2.539 1.89,-4.609 4.04,-5.628 l 0.72,-6.243 c -7.13,-1.16 -14.02,-3.32 -20.58,-6.461 z m -19.5,-14 c -9.41,-9.661 -15.62,-21.668 -17.91,-34.719 l -7.48,1.308 c 1.08,6.051 2.89,11.903 5.39,17.442 l -4.51,2.34 c -0.56,-0.258 -1.17,-0.45 -1.83,-0.52 -3.3,-0.39 -6.31,1.969 -6.7,5.289 -0.37,3.313 1.99,6.301 5.29,6.692 3.11,0.371 5.92,-1.68 6.6,-4.649 l 4.65,-2.422 c 3.05,5.219 6.76,10.102 11.08,14.539 l 5.42,-5.3"
         style="fill:#1d2328;fill-opacity:1;fill-rule:nonzero;stroke:none"
         id="path320" /></g></g></svg>
